<?xml version="1.0" standalone="no"?>
<!DOCTYPE svg PUBLIC "-//W3C//DTD SVG 20010904//EN"
 "http://www.w3.org/TR/2001/REC-SVG-20010904/DTD/svg10.dtd">
<svg version="1.0" xmlns="http://www.w3.org/2000/svg"
 width="1256.000000pt" height="1256.000000pt" viewBox="0 0 1256.000000 1256.000000"
 preserveAspectRatio="xMidYMid meet">
<metadata>
Created by potrace 1.11, written by Peter Selinger 2001-2013
</metadata>
<g transform="translate(0.000000,1256.000000) scale(0.100000,-0.100000)"
fill="#000000" stroke="none">
<path d="M4 10593 c3 -10 8 -31 10 -48 3 -16 10 -45 15 -62 5 -18 8 -33 6 -33
-3 0 -1 -10 4 -23 5 -13 12 -41 15 -63 4 -21 9 -47 12 -56 6 -21 14 -55 20
-93 3 -16 12 -55 19 -85 8 -30 17 -71 20 -90 3 -19 11 -53 17 -75 6 -22 12
-49 13 -60 2 -11 10 -51 19 -90 9 -38 18 -81 20 -95 2 -14 9 -45 16 -70 7 -25
14 -56 17 -70 2 -14 11 -54 19 -90 8 -35 22 -98 30 -140 9 -41 18 -84 21 -95
2 -11 6 -29 8 -40 3 -11 7 -31 10 -45 4 -14 8 -36 11 -50 3 -14 8 -34 11 -45
3 -11 7 -29 8 -40 2 -11 10 -49 18 -85 8 -36 22 -96 31 -135 8 -38 29 -133 46
-210 18 -77 34 -150 36 -162 10 -55 21 -107 28 -131 3 -9 8 -29 11 -44 3 -16
7 -40 10 -55 3 -16 8 -36 11 -45 3 -10 8 -30 10 -45 3 -16 10 -46 15 -68 5
-22 11 -51 14 -65 2 -14 11 -56 20 -95 22 -91 25 -105 30 -135 4 -27 7 -38 25
-115 7 -27 14 -57 15 -65 1 -8 6 -33 11 -55 4 -22 8 -43 9 -47 0 -3 3 -9 7
-13 4 -4 4 -13 1 -21 -3 -8 0 -14 7 -14 6 0 8 -4 5 -10 -3 -5 -1 -29 6 -52 6
-24 13 -54 15 -68 2 -14 7 -36 11 -50 10 -42 11 -44 17 -75 7 -38 12 -59 25
-115 5 -25 12 -56 15 -70 7 -31 34 -157 42 -190 3 -14 6 -33 7 -42 1 -10 4
-18 7 -18 3 0 5 -10 6 -22 1 -27 9 -66 29 -145 8 -32 17 -69 19 -83 3 -14 5
-25 6 -25 1 0 3 -12 5 -26 2 -14 8 -43 14 -66 9 -35 24 -100 37 -168 2 -11 10
-50 18 -86 8 -36 17 -77 20 -90 2 -13 7 -31 10 -39 3 -8 7 -31 10 -50 3 -19
12 -59 20 -87 8 -29 12 -53 9 -53 -3 0 0 -6 6 -13 6 -8 9 -16 6 -19 -3 -2 1
-29 9 -59 12 -47 38 -162 50 -224 3 -11 9 -40 15 -65 5 -25 12 -58 15 -75 3
-16 10 -45 15 -63 5 -18 10 -35 10 -37 0 -3 2 -18 5 -33 4 -15 8 -36 10 -47 3
-11 10 -42 16 -70 6 -27 13 -61 16 -75 2 -14 13 -63 24 -110 11 -47 27 -119
36 -160 9 -41 22 -102 30 -135 7 -33 16 -71 18 -85 2 -14 10 -47 16 -75 6 -27
14 -61 16 -75 3 -14 9 -41 14 -60 5 -19 11 -46 14 -60 3 -14 8 -36 11 -50 3
-14 7 -36 9 -50 2 -14 9 -45 16 -70 13 -47 17 -66 25 -115 3 -16 8 -37 10 -45
2 -8 6 -26 9 -40 3 -14 12 -56 21 -95 20 -91 24 -110 30 -142 3 -16 10 -45 16
-66 6 -21 12 -50 14 -65 3 -15 9 -45 14 -67 5 -22 12 -51 15 -65 2 -14 14 -68
26 -120 12 -52 24 -106 26 -120 2 -14 11 -52 19 -85 8 -33 16 -71 19 -85 3
-14 7 -34 10 -45 3 -11 10 -47 16 -80 7 -33 14 -67 17 -75 3 -8 8 -24 10 -35
6 -34 33 -158 42 -199 6 -22 9 -42 9 -45 0 -3 1 -8 2 -11 1 -3 3 -12 5 -20 2
-8 13 -59 25 -114 12 -54 24 -108 26 -120 3 -11 7 -32 10 -46 3 -14 9 -41 14
-60 5 -19 11 -46 14 -60 5 -28 15 -76 23 -102 4 -17 39 -18 544 -18 296 0 539
3 540 8 0 4 2 14 4 22 2 8 7 26 10 40 3 14 8 34 10 45 2 11 8 45 15 75 7 30
13 65 15 77 2 11 6 32 11 45 4 12 8 32 10 43 1 11 9 49 18 85 19 83 29 130 30
153 0 9 3 17 6 17 3 0 7 10 8 22 1 13 20 106 43 208 22 102 43 196 45 210 2
14 11 57 20 95 9 39 18 81 20 95 3 14 7 33 10 42 3 10 7 30 10 45 3 16 16 80
30 143 15 63 28 129 31 145 2 17 11 57 20 90 8 33 17 73 20 89 4 26 27 136 37
176 4 15 34 155 42 195 2 11 13 61 24 110 11 50 21 101 24 115 2 14 9 45 16
69 6 23 9 46 6 49 -3 3 -2 10 3 16 5 6 12 27 15 46 9 49 14 71 20 100 3 14 8
36 11 50 12 58 15 71 20 92 3 13 8 34 10 48 3 14 13 63 24 110 43 195 74 346
75 363 0 9 5 17 10 17 5 0 7 2 4 5 -5 5 8 71 38 200 3 11 7 31 10 45 2 14 7
36 10 50 3 14 8 36 10 50 3 14 9 41 14 60 5 19 12 53 16 75 3 22 8 43 10 46 2
4 6 24 10 45 3 22 12 63 20 92 7 30 13 57 13 60 -1 4 0 9 1 12 4 10 9 36 15
70 6 31 12 58 30 135 7 26 17 76 20 95 1 8 5 26 8 40 24 100 37 160 42 190 3
19 14 71 25 115 19 82 27 118 36 170 3 16 14 68 25 115 11 47 22 96 24 110 2
14 15 75 29 135 14 61 28 126 31 145 3 19 11 40 17 47 7 9 7 13 0 13 -7 0 -7
11 1 35 10 34 26 47 28 23 0 -7 2 -20 5 -28 9 -36 45 -197 48 -222 3 -15 7
-31 9 -35 3 -4 8 -24 11 -43 3 -19 8 -46 11 -60 3 -14 8 -34 10 -45 9 -38 15
-65 21 -87 3 -13 7 -32 9 -43 2 -11 6 -29 8 -40 15 -61 34 -147 43 -200 3 -16
12 -57 20 -90 8 -33 17 -73 20 -90 3 -16 7 -37 10 -45 3 -8 8 -26 10 -40 4
-23 9 -48 30 -135 4 -16 8 -34 9 -40 2 -5 5 -26 9 -46 3 -20 8 -42 10 -50 6
-16 16 -61 23 -104 2 -16 7 -37 10 -45 3 -8 7 -24 9 -35 2 -11 10 -51 19 -90
23 -97 36 -156 41 -185 2 -14 7 -36 11 -50 3 -14 7 -31 9 -39 1 -7 7 -34 13
-60 6 -25 13 -57 16 -71 2 -14 9 -43 14 -65 11 -46 21 -91 26 -120 2 -11 9
-42 15 -70 7 -27 14 -63 16 -80 2 -16 8 -41 13 -55 5 -14 13 -43 17 -65 4 -22
8 -44 10 -50 1 -5 5 -26 8 -45 4 -19 11 -48 16 -65 5 -16 11 -43 14 -60 3 -16
12 -61 21 -100 9 -38 18 -79 20 -90 3 -11 7 -31 11 -45 3 -14 7 -38 10 -55 3
-16 9 -43 14 -60 5 -16 11 -43 14 -60 9 -55 17 -90 22 -105 3 -8 8 -25 10 -37
10 -55 14 -76 40 -188 8 -38 17 -81 19 -95 2 -14 8 -43 14 -65 17 -65 98 -436
105 -477 3 -15 7 -32 10 -36 3 -5 8 -24 10 -43 3 -19 8 -45 11 -59 8 -30 13
-56 19 -90 3 -14 9 -40 15 -57 5 -18 8 -33 6 -33 -3 0 -1 -10 4 -23 5 -13 12
-39 15 -58 6 -38 10 -53 26 -124 6 -27 14 -61 16 -75 3 -14 9 -41 14 -60 5
-19 12 -51 15 -70 3 -19 15 -71 25 -115 17 -69 78 -345 84 -378 1 -7 8 -39 15
-72 8 -33 15 -67 16 -75 2 -8 4 -15 5 -15 2 0 9 -37 12 -63 1 -10 112 -12 536
-10 l535 3 14 55 c7 30 15 69 17 85 3 17 14 73 26 125 12 52 24 106 26 120 3
14 11 53 19 86 8 34 17 74 20 88 3 14 8 38 11 53 3 15 12 59 20 98 9 38 18 81
21 95 8 42 9 44 16 65 3 11 8 38 12 60 3 22 10 56 15 75 8 32 16 68 26 125 2
11 13 61 24 110 27 116 29 123 36 165 3 19 10 49 14 65 5 17 11 41 14 55 3 21
58 279 73 345 2 11 6 31 9 45 2 14 7 32 10 40 3 8 8 29 10 45 5 33 8 48 17 85
4 14 9 37 12 53 5 26 10 50 20 95 8 34 14 62 25 117 10 50 17 82 25 120 3 11
7 29 9 40 2 11 10 43 16 70 6 28 13 57 15 65 9 51 15 86 14 90 0 3 4 17 10 32
6 15 13 49 17 75 3 27 8 51 11 56 2 4 7 20 10 35 3 15 6 32 7 37 8 33 26 124
30 147 3 15 7 31 9 36 3 4 8 27 12 52 4 25 8 47 10 51 4 6 14 54 20 99 2 14 6
32 9 40 3 8 8 26 10 40 3 14 8 36 11 50 3 14 7 36 10 50 3 14 7 34 10 45 6 29
35 156 39 180 2 11 9 40 15 65 5 25 12 59 15 75 3 17 8 41 11 55 14 61 23 102
36 165 6 28 12 59 14 70 3 11 18 81 34 155 16 74 32 146 34 160 3 14 10 43 15
65 6 22 13 54 16 70 3 17 7 41 10 55 3 14 8 35 10 46 5 26 46 210 52 239 10
40 16 70 19 90 1 11 7 38 13 60 6 22 13 54 15 70 3 17 15 73 27 125 12 52 23
106 25 120 2 14 11 57 20 95 9 39 19 80 21 93 6 34 12 63 23 107 6 22 12 54
15 70 9 50 15 76 20 93 6 18 14 58 22 107 3 17 12 55 19 85 7 30 16 69 19 85
3 17 7 41 10 55 3 14 8 34 10 45 2 11 10 43 16 70 7 28 13 59 15 70 1 11 5 27
8 35 3 8 13 42 23 75 21 74 33 87 81 91 21 2 1063 3 2316 3 l2277 1 0 1015 0
1015 -2282 0 c-1435 -1 -2302 -5 -2333 -11 -103 -20 -121 -24 -177 -43 -110
-38 -211 -95 -323 -182 -68 -53 -106 -88 -216 -202 -29 -30 -151 -196 -162
-219 -6 -13 -14 -23 -19 -23 -4 0 -8 -5 -8 -11 0 -6 -8 -23 -19 -37 -27 -39
-121 -224 -160 -317 -18 -44 -39 -93 -46 -110 -8 -16 -17 -43 -21 -60 -4 -16
-9 -34 -13 -40 -3 -5 -6 -12 -7 -15 0 -3 -4 -12 -7 -20 -6 -15 -54 -180 -62
-216 -2 -10 -10 -39 -16 -64 -6 -25 -13 -54 -14 -65 -2 -11 -4 -20 -5 -20 -2
0 -5 -15 -15 -65 -4 -19 -8 -39 -9 -45 -4 -16 -28 -129 -31 -145 -2 -8 -4 -16
-5 -17 -2 -2 -4 -12 -5 -23 -1 -11 -3 -21 -5 -22 -1 -2 -3 -11 -5 -22 -2 -10
-9 -39 -15 -65 -6 -25 -13 -59 -15 -76 -3 -16 -11 -57 -19 -90 -15 -61 -21
-88 -36 -160 -4 -22 -11 -51 -14 -65 -3 -14 -9 -38 -11 -55 -3 -16 -8 -37 -10
-45 -2 -8 -7 -26 -9 -40 -3 -14 -17 -75 -30 -137 -33 -148 -37 -165 -40 -183
-1 -8 -5 -24 -9 -35 -3 -11 -9 -36 -12 -55 -3 -19 -15 -73 -25 -120 -11 -47
-22 -96 -24 -110 -2 -14 -11 -54 -20 -90 -8 -36 -17 -77 -20 -92 -4 -16 -8
-40 -11 -55 -3 -16 -10 -44 -15 -63 -5 -19 -11 -46 -14 -60 -9 -50 -67 -316
-76 -350 -5 -19 -11 -46 -14 -60 -2 -14 -10 -47 -16 -75 -6 -27 -13 -61 -15
-75 -2 -14 -4 -25 -5 -25 -1 0 -3 -7 -5 -15 -1 -8 -13 -60 -25 -115 -12 -55
-23 -109 -25 -120 -6 -35 -16 -79 -21 -97 -3 -10 -7 -28 -10 -40 -2 -13 -6
-34 -9 -48 -4 -14 -8 -34 -10 -45 -3 -11 -7 -30 -10 -42 -3 -13 -7 -33 -10
-45 -13 -61 -29 -134 -30 -138 -1 -3 -5 -23 -10 -45 -4 -22 -10 -49 -12 -60
-2 -11 -6 -31 -9 -45 -3 -14 -10 -29 -16 -35 -8 -7 -9 -5 -5 7 3 9 3 19 -1 23
-4 4 -7 10 -7 13 -1 8 -18 104 -20 112 -2 7 -27 121 -30 140 -2 8 -4 15 -5 15
-1 0 -3 9 -5 20 -2 11 -6 31 -9 45 -3 14 -10 48 -16 75 -6 28 -13 61 -16 75
-3 14 -14 68 -25 120 -11 52 -22 102 -24 110 -1 8 -13 62 -25 120 -12 58 -24
114 -27 125 -2 11 -6 31 -9 45 -3 14 -7 33 -10 42 -3 10 -7 28 -9 40 -9 54
-14 76 -24 118 -7 25 -14 56 -16 70 -2 14 -7 36 -10 50 -4 14 -9 39 -11 55 -3
17 -15 68 -26 115 -11 47 -21 96 -23 110 -2 14 -10 55 -18 91 -9 36 -18 79
-21 95 -2 16 -9 43 -14 59 -5 17 -7 36 -5 43 3 6 0 12 -7 12 -6 0 -9 4 -6 8 2
4 -4 48 -15 98 -11 49 -22 100 -25 114 -2 14 -10 55 -18 91 -8 36 -18 79 -21
95 -3 16 -7 34 -9 39 -2 9 -13 59 -21 105 -2 8 -9 38 -15 65 -17 74 -20 86
-26 125 -3 19 -7 43 -10 52 -8 28 -15 61 -20 93 -2 16 -7 39 -11 50 -3 11 -8
29 -9 40 -4 26 -12 60 -14 60 -1 0 -3 11 -6 25 -2 14 -9 49 -15 77 -6 29 -10
55 -10 58 0 2 -5 19 -10 37 -6 18 -12 42 -13 53 -4 22 -45 219 -52 250 -3 11
-7 30 -9 41 -3 12 -14 66 -26 120 -11 55 -30 142 -41 194 -11 52 -24 113 -29
135 -13 56 -17 76 -23 105 -2 14 -7 36 -10 50 -4 14 -9 39 -11 55 -3 17 -8 37
-10 45 -2 8 -6 26 -9 40 -3 14 -7 36 -10 50 -6 25 -23 106 -30 145 -3 11 -9
40 -15 65 -5 25 -12 56 -15 70 -3 14 -19 88 -35 165 -17 77 -38 177 -47 223
l-17 82 -649 0 -648 0 -1 -25 c-1 -25 -5 -43 -9 -47 -2 -3 -6 -20 -14 -62 -9
-50 -31 -149 -36 -163 -1 -5 -2 -12 -1 -16 1 -4 -6 -36 -15 -70 -9 -34 -18
-73 -20 -87 -3 -14 -7 -38 -11 -55 -4 -16 -8 -34 -9 -40 -1 -5 -7 -35 -13 -65
-6 -30 -13 -65 -16 -78 -2 -12 -6 -26 -9 -30 -2 -4 -7 -26 -10 -48 -8 -53 -13
-77 -42 -199 -3 -11 -7 -33 -10 -50 -3 -16 -12 -55 -19 -85 -7 -30 -16 -68
-18 -85 -3 -16 -17 -83 -32 -147 -14 -65 -28 -128 -29 -140 -2 -13 -6 -30 -9
-38 -3 -8 -8 -28 -11 -45 -3 -16 -7 -41 -10 -55 -6 -28 -34 -154 -41 -185 -3
-11 -9 -42 -15 -70 -12 -59 -18 -89 -24 -112 -8 -35 -37 -170 -62 -288 -28
-137 -30 -146 -43 -200 -14 -57 -22 -96 -26 -125 -2 -14 -4 -25 -5 -25 -2 0
-9 -32 -14 -65 -2 -14 -9 -43 -15 -65 -5 -22 -13 -56 -16 -75 -3 -19 -15 -71
-25 -116 -11 -45 -22 -96 -24 -115 -3 -19 -6 -35 -7 -36 -2 -4 -5 -14 -13 -58
-4 -22 -12 -53 -16 -70 -5 -16 -11 -43 -14 -60 -2 -16 -5 -31 -6 -32 -2 -2 -4
-12 -5 -23 -1 -11 -3 -21 -5 -22 -2 -3 -5 -20 -14 -68 -3 -19 -13 -64 -21
-100 -9 -36 -17 -74 -19 -85 -5 -21 -9 -41 -26 -115 -5 -25 -12 -57 -15 -72
-8 -44 -15 -80 -26 -128 -6 -25 -13 -56 -15 -70 -3 -14 -19 -86 -35 -160 -17
-74 -33 -145 -35 -157 -6 -34 -12 -65 -18 -88 -10 -45 -79 -362 -82 -380 -21
-106 -29 -141 -33 -145 -3 -3 -7 -14 -8 -25 -3 -32 -11 -77 -21 -117 -5 -20
-7 -40 -3 -44 3 -4 1 -4 -5 -1 -7 4 -15 24 -18 44 -4 21 -13 65 -21 98 -16 65
-25 107 -30 142 -2 11 -6 30 -10 42 -3 11 -8 31 -11 43 -2 13 -6 34 -9 48 -7
29 -13 60 -19 93 -2 12 -7 29 -10 37 -3 8 -8 32 -11 54 -3 21 -7 42 -10 46 -2
4 -7 22 -10 41 -5 34 -32 157 -55 254 -7 28 -13 59 -15 70 -1 11 -3 20 -5 20
-1 0 -3 9 -5 20 -2 11 -5 29 -8 40 -3 11 -8 40 -12 65 -4 25 -10 49 -13 55 -3
5 -7 16 -8 25 -3 24 -14 80 -29 146 -16 70 -25 110 -30 139 -4 23 -7 33 -35
165 -29 131 -32 145 -31 147 0 2 -5 17 -10 35 -5 18 -12 48 -15 67 -3 18 -7
41 -10 50 -13 53 -55 249 -57 264 -1 9 -5 17 -10 17 -4 0 -6 4 -2 10 3 5 -3
47 -14 92 -11 46 -22 97 -25 113 -7 34 -9 41 -31 140 -9 39 -18 79 -20 90 -2
11 -6 31 -9 45 -14 62 -36 168 -40 192 -3 15 -8 32 -11 38 -4 6 -8 25 -11 43
-2 18 -6 44 -10 59 -3 15 -5 29 -4 30 1 2 -3 15 -8 29 -6 14 -13 41 -16 60 -3
19 -8 45 -11 59 -3 14 -8 36 -11 50 -6 30 -62 286 -69 315 -8 36 -26 119 -31
145 -2 14 -12 54 -20 90 -9 36 -18 75 -20 88 -2 12 -6 32 -9 45 -2 12 -7 36
-10 52 -3 17 -10 46 -15 65 -5 19 -11 46 -14 60 -6 30 -24 117 -31 145 -9 36
-16 69 -21 95 -2 14 -11 57 -20 95 -9 39 -18 79 -20 90 -2 11 -6 30 -8 43 -3
13 -7 31 -10 40 -3 9 -7 28 -10 42 -2 14 -14 68 -25 120 -12 52 -24 106 -26
120 -10 47 -27 125 -32 143 -4 16 -44 17 -664 17 -624 0 -660 -1 -655 -17z"/>
<path d="M8110 7241 c-15 -67 -26 -120 -34 -165 -2 -13 -7 -33 -10 -44 -4 -11
-9 -31 -11 -44 -8 -43 -46 -213 -56 -253 -5 -22 -12 -53 -14 -70 -2 -16 -4
-30 -5 -30 -2 0 -6 -18 -14 -55 -3 -14 -15 -65 -26 -115 -11 -49 -22 -101 -25
-115 -2 -14 -11 -58 -20 -99 -10 -40 -19 -80 -20 -90 -2 -9 -4 -16 -5 -16 -2
0 -5 -16 -13 -60 -3 -16 -19 -91 -36 -165 -16 -74 -32 -146 -35 -160 -3 -14
-10 -43 -15 -64 -5 -22 -9 -42 -9 -45 0 -3 -1 -8 -2 -11 -1 -3 -3 -12 -5 -20
-42 -194 -67 -308 -71 -321 -3 -11 3 -18 16 -22 11 -3 20 -1 20 5 0 5 5 6 12
2 15 -10 141 -10 156 0 7 4 12 4 12 -1 0 -10 143 -9 159 1 6 4 11 4 11 -1 0
-10 142 -9 158 1 7 4 17 4 24 0 16 -10 168 -11 168 -1 0 5 5 5 11 1 15 -9 93
-9 107 0 7 4 12 3 12 -1 0 -10 72 -9 88 1 6 3 13 3 15 -1 6 -10 180 -9 196 1
6 4 11 4 11 -1 0 -10 152 -9 168 1 7 4 17 4 24 0 16 -10 168 -11 168 -1 0 4 8
4 18 0 21 -10 93 -10 110 1 6 4 17 4 24 0 16 -10 168 -11 168 -1 0 4 8 3 18
-2 11 -6 24 -6 34 0 9 5 19 6 21 2 6 -10 180 -9 196 1 6 4 11 4 11 -1 0 -10
143 -9 159 1 6 4 11 4 11 -1 0 -10 142 -9 158 1 7 4 17 4 24 0 16 -10 168 -11
168 -1 0 5 5 5 11 1 15 -9 93 -9 107 0 7 4 12 3 12 -1 0 -10 72 -9 88 1 6 3
13 3 15 -1 6 -10 180 -9 196 1 6 4 11 4 11 -1 0 -10 152 -9 168 1 7 4 17 4 23
0 7 -4 37 -8 68 -9 92 -4 147 -43 205 -145 17 -30 31 -57 31 -60 1 -3 6 -21
12 -40 23 -69 26 -119 27 -410 0 -251 -2 -305 -17 -360 -36 -132 -100 -225
-182 -265 -39 -18 -97 -19 -1877 -19 -1010 -1 -1839 -4 -1842 -7 -6 -5 -8 -14
-21 -87 -4 -23 -12 -45 -16 -48 -5 -3 -7 -9 -4 -14 3 -5 -2 -37 -11 -72 -8
-35 -17 -74 -19 -88 -2 -14 -6 -34 -8 -45 -10 -39 -26 -110 -31 -135 -2 -14
-21 -99 -41 -190 -21 -91 -39 -174 -40 -185 -2 -11 -10 -49 -19 -85 -8 -36
-17 -76 -20 -90 -2 -14 -7 -32 -10 -40 -3 -8 -7 -28 -9 -45 -3 -16 -10 -49
-16 -73 -7 -23 -9 -47 -6 -52 3 -5 1 -11 -4 -14 -7 -5 -11 -23 -21 -86 -1 -3
-5 -23 -11 -45 -5 -22 -12 -51 -15 -64 -2 -12 -11 -51 -19 -85 -8 -33 -16 -72
-19 -86 -2 -14 -17 -79 -31 -145 -15 -66 -31 -138 -36 -160 -5 -22 -10 -50
-13 -63 l-5 -22 2122 3 c1167 2 2133 6 2147 10 14 3 36 8 49 11 31 7 91 25
116 36 77 32 165 76 193 97 17 13 32 20 32 16 0 -4 5 0 11 10 5 9 17 17 24 17
8 0 15 4 15 8 0 4 12 15 28 24 50 30 272 257 272 279 0 5 4 9 8 9 4 0 19 18
32 40 14 22 28 40 33 40 4 0 7 6 7 13 0 7 8 22 18 33 9 10 23 31 31 47 8 15
18 27 23 27 4 0 8 9 8 20 0 11 4 20 9 20 5 0 12 9 16 20 3 10 23 50 43 87 34
62 117 241 117 253 0 5 17 49 35 95 26 65 39 105 34 105 -4 0 -2 6 4 13 6 6
10 14 10 17 0 3 5 25 12 50 7 25 13 52 13 60 0 8 3 20 7 25 10 13 52 202 65
290 3 17 7 41 10 55 3 14 8 45 11 70 3 25 9 64 13 87 6 28 5 40 -2 36 -5 -3
-7 -2 -4 4 20 33 30 243 30 643 0 396 -11 630 -38 770 -3 14 -7 43 -10 65 -10
70 -15 99 -20 125 -4 14 -8 36 -11 50 -3 14 -10 43 -15 65 -5 22 -11 52 -14
67 -2 15 -9 37 -15 48 -6 11 -9 20 -6 20 3 0 -4 25 -14 55 -10 30 -16 55 -13
55 3 0 0 7 -7 15 -7 8 -10 15 -6 15 3 0 -1 17 -10 38 -8 20 -24 63 -35 94 -17
51 -35 96 -85 206 -8 18 -21 45 -27 60 -22 50 -111 207 -119 210 -4 2 -8 8 -8
12 0 12 -112 170 -165 235 -119 145 -285 278 -440 355 -56 28 -109 52 -116 53
-8 2 -18 5 -24 8 -5 4 -32 11 -60 18 -27 6 -63 14 -80 18 -16 3 -717 7 -1557
9 l-1527 2 -11 -47z"/>
</g>
</svg>