<svg xmlns="http://www.w3.org/2000/svg" viewBox="0 0 1182.39 189"><title>Asset 12</title><g id="Layer_2" data-name="Layer 2"><g id="Layer_1-2" data-name="Layer 1"><path d="M0,0V189H189V0ZM172.73,114.35c0,13.52-8.36,24.59-18.57,24.59H102.88l5.55-20.37H154c1.88,0,3.42-2,3.42-4.53v-4c0-2.49-1.54-4.53-3.42-4.53H112l5.5-20.19h36.67c10.21,0,18.57,11.06,18.57,24.59Zm.18-42.06H158.1l-41.61,0c-1.88.09-1.55-.19-2.12,1.31a23.61,23.61,0,0,0-.67,2.33l-6.84,25.64-10,37.35H83.59l-15.31-56-15,56H39.81l-23.72-87H32.57l14,51.68L60.37,51.91h16.1L90,103l9.32-34.4h0c2.5-9.68,9.44-16.69,17.57-16.69h56Z"/><g id="_Group_" data-name="&lt;Group&gt;"><path id="_Compound_Path_" data-name="&lt;Compound Path&gt;" d="M256.38,171.14h-4.92l-2.31-27.93H249l-10.81,28.24h-2.82l-10.81-28.24h-.15l-2.26,27.93h-4.92l3.18-35.36h6.15l10.2,27.31h.1l10.2-27.31h6.1Z"/><path id="_Compound_Path_2" data-name="&lt;Compound Path&gt;" d="M299.64,171.14H294.1l-3.64-9.22H275.3l-3.64,9.22h-5.23l14.4-35.46h4.36Zm-10.56-13.38-6.2-15.89-6.2,15.89Z"/><path id="_Compound_Path_3" data-name="&lt;Compound Path&gt;" d="M335.26,171.14h-6L320,155.91h-3.79v15.22h-5V135.77h10a13.53,13.53,0,0,1,8.51,2.46,9.32,9.32,0,0,1,3.43,7.48c0,6.2-4.31,9-8,9.69Zm-9.43-30c-1.59-1.18-3.48-1.28-5.94-1.28h-3.64v12h3.64c2.46,0,4.36-.1,5.94-1.23a5.35,5.35,0,0,0,2.26-4.77A5.26,5.26,0,0,0,325.83,141.1Z"/><path id="_Compound_Path_4" data-name="&lt;Compound Path&gt;" d="M373,171.14h-6L355.25,153.4l-3.64,3.69v14h-5V135.77h5v15.07L366,135.77h6l-13.48,13.94Z"/><path id="_Compound_Path_5" data-name="&lt;Compound Path&gt;" d="M405.11,171.14H384V135.77h20.7v4.15H389v10.56h14.86v4.15H389v12.3h16.14Z"/><path id="_Compound_Path_6" data-name="&lt;Compound Path&gt;" d="M440.27,139.93h-9.94v31.21h-5V139.93h-10v-4.15h24.91Z"/><path id="_Compound_Path_7" data-name="&lt;Compound Path&gt;" d="M457.24,171.14h-5V135.77h5Z"/><path id="_Compound_Path_8" data-name="&lt;Compound Path&gt;" d="M502.8,171.14h-4.87l-20.4-28.19s.1,4.77.1,9.38v18.81h-4.92V135.77h5.23l20,27.78s-.05-4.36-.05-9V135.77h4.87Z"/><path id="_Compound_Path_9" data-name="&lt;Compound Path&gt;" d="M549.39,166c-.67.67-5,5.74-15,5.74s-18-7.28-18-18.3,7.94-18.19,18-18.19c9.07,0,13,4.77,14.3,6.15l-3.38,3.13a13.6,13.6,0,0,0-10.92-5c-7.28,0-12.86,5.23-12.86,13.94s5.79,13.94,13.17,13.94,9.94-3.23,9.94-3.23v-7.84H535v-4h14.35Z"/><path id="_Compound_Path_10" data-name="&lt;Compound Path&gt;" d="M619.75,171.14h-4.92l-2.31-27.93h-.15l-10.81,28.24h-2.82l-10.81-28.24h-.15l-2.26,27.93H580.6l3.18-35.36h6.15l10.2,27.31h.1l10.2-27.31h6.1Z"/><path id="_Compound_Path_11" data-name="&lt;Compound Path&gt;" d="M654.76,171.14H633.64V135.77h20.7v4.15H638.61v10.56h14.86v4.15H638.61v12.3h16.14Z"/><path id="_Compound_Path_12" data-name="&lt;Compound Path&gt;" d="M689.66,171.14H668.55V135.77h20.7v4.15H673.52v10.56h14.86v4.15H673.52v12.3h16.14Z"/><path id="_Compound_Path_13" data-name="&lt;Compound Path&gt;" d="M724.82,139.93h-9.94v31.21h-5V139.93h-10v-4.15h24.91Z"/><path id="_Compound_Path_14" data-name="&lt;Compound Path&gt;" d="M754,169a13.39,13.39,0,0,1-8.66,2.77c-6.2,0-9.74-4-11.43-5.94l2.92-3.33c1.79,2.41,5.12,5.07,9,5.07s6.92-2.2,6.92-5.95-3.95-5.12-5.74-5.84-4.3-1.69-5.64-2.36a11.36,11.36,0,0,1-3.54-2.51,8.49,8.49,0,0,1-2.31-6.15,8.8,8.8,0,0,1,3.23-6.82,12.42,12.42,0,0,1,8.15-2.61A13.79,13.79,0,0,1,757,139.87l-2.61,3.38a10.75,10.75,0,0,0-7.79-3.79c-3.49,0-6.15,1.64-6.15,4.92s2.41,4.51,4.56,5.38l6.51,2.72a13.82,13.82,0,0,1,4,2.87,9.11,9.11,0,0,1,2.15,5.94A9.85,9.85,0,0,1,754,169Z"/><path id="_Compound_Path_15" data-name="&lt;Compound Path&gt;" d="M810.36,139.93h-9.94v31.21h-5V139.93h-10v-4.15h24.91Z"/><path id="_Compound_Path_16" data-name="&lt;Compound Path&gt;" d="M843.46,171.14H822.35V135.77h20.7v4.15H827.32v10.56h14.86v4.15H827.32v12.3h16.14Z"/><path id="_Compound_Path_17" data-name="&lt;Compound Path&gt;" d="M886.26,166.52c-2.2,2.46-6.2,5.23-12.91,5.23-10.3,0-18.09-7.23-18.09-18.25s7.94-18.24,18.09-18.24c6.61,0,10.61,2.77,12.56,4.66l-2.1,4c-1.38-1.74-5.33-4.3-10.25-4.3-7.64,0-13.17,5.48-13.17,13.78s5.59,13.79,13.17,13.79a14,14,0,0,0,10.56-4.3Z"/><path id="_Compound_Path_18" data-name="&lt;Compound Path&gt;" d="M927.77,171.14h-5v-16.5H904v16.5h-5V135.77h5v14.61H922.8V135.77h5Z"/><path id="_Compound_Path_19" data-name="&lt;Compound Path&gt;" d="M973.38,171.14h-4.87l-20.4-28.19s.1,4.77.1,9.38v18.81H943.3V135.77h5.23l20,27.78s-.05-4.36-.05-9V135.77h4.87Z"/><path id="_Compound_Path_20" data-name="&lt;Compound Path&gt;" d="M1005.16,171.75c-9.94,0-18.25-6.92-18.25-18.25s8.3-18.24,18.25-18.24,18.24,6.92,18.24,18.24S1015.1,171.75,1005.16,171.75Zm0-32.18c-7.23,0-13.17,5.18-13.17,13.84s6,13.84,13.17,13.84,13.17-5.23,13.17-13.84S1012.39,139.57,1005.16,139.57Z"/><path id="_Compound_Path_21" data-name="&lt;Compound Path&gt;" d="M1054.31,171.14h-17.42V135.77h5v31.11h12.45Z"/><path id="_Compound_Path_22" data-name="&lt;Compound Path&gt;" d="M1080.6,171.75c-9.94,0-18.25-6.92-18.25-18.25s8.3-18.24,18.25-18.24,18.24,6.92,18.24,18.24S1090.55,171.75,1080.6,171.75Zm0-32.18c-7.23,0-13.17,5.18-13.17,13.84s6,13.84,13.17,13.84,13.17-5.23,13.17-13.84S1087.83,139.57,1080.6,139.57Z"/><path id="_Compound_Path_23" data-name="&lt;Compound Path&gt;" d="M1143.38,166c-.67.67-5,5.74-15,5.74s-18-7.28-18-18.3,7.94-18.19,18-18.19c9.07,0,13,4.77,14.3,6.15l-3.38,3.13a13.6,13.6,0,0,0-10.92-5c-7.28,0-12.86,5.23-12.86,13.94s5.79,13.94,13.17,13.94,9.94-3.23,9.94-3.23v-7.84H1129v-4h14.35Z"/><path id="_Compound_Path_24" data-name="&lt;Compound Path&gt;" d="M1182.39,135.77l-12.3,20.55v14.81h-5V156.33l-12.3-20.55h5.59l9.17,16.25,9.22-16.25Z"/></g><g id="_Group_2" data-name="&lt;Group&gt;"><g id="_Group_3" data-name="&lt;Group&gt;"><path d="M301,30.56,282.6,94.4h-8.78L258.49,42.85,243.24,94.4h-8.78L216.08,30.56h9.42l13.77,50.26L254,30.56h9.15L277.8,80.82l13.77-50.26Z"/><path d="M298.58,29.9,280.19,93.74l2.41-1.84h-8.78l2.41,1.84L260.9,42.19a2.52,2.52,0,0,0-4.82,0L240.83,93.74l2.41-1.84h-8.78l2.41,1.84L218.49,29.9l-2.41,3.16h9.42l-2.41-1.84,13.77,50.26a2.52,2.52,0,0,0,4.82,0l14.69-50.26L254,33.06h9.15l-2.41-1.84,14.69,50.26a2.52,2.52,0,0,0,4.82,0L294,31.23l-2.41,1.84H301c3.22,0,3.22-5,0-5h-9.42a2.55,2.55,0,0,0-2.41,1.84L275.39,80.16h4.82L265.52,29.9a2.56,2.56,0,0,0-2.41-1.84H254a2.55,2.55,0,0,0-2.41,1.84L236.86,80.16h4.82L227.92,29.9a2.55,2.55,0,0,0-2.41-1.84h-9.42a2.52,2.52,0,0,0-2.41,3.16l18.39,63.84a2.55,2.55,0,0,0,2.41,1.84h8.78a2.56,2.56,0,0,0,2.41-1.84L260.9,43.51h-4.82l15.34,51.55a2.56,2.56,0,0,0,2.41,1.84h8.78A2.55,2.55,0,0,0,285,95.07L303.4,31.23C304.29,28.13,299.47,26.81,298.58,29.9Z"/></g><g id="_Group_4" data-name="&lt;Group&gt;"><path d="M330.17,94.31h-9V30.56h9Z"/><path d="M330.17,91.81h-9l2.5,2.5V30.56l-2.5,2.5h9l-2.5-2.5V94.31c0,3.22,5,3.22,5,0V30.56a2.54,2.54,0,0,0-2.5-2.5h-9a2.54,2.54,0,0,0-2.5,2.5V94.31a2.54,2.54,0,0,0,2.5,2.5h9C333.39,96.81,333.39,91.81,330.17,91.81Z"/></g><g id="_Group_5" data-name="&lt;Group&gt;"><path d="M411.19,94.31h-8.78L365.64,43.5s.18,8.59.18,16.91V94.31H357V30.56h9.42L402.5,80.64s-.09-7.85-.09-16.26V30.56h8.78Z"/><path d="M411.19,91.81h-8.78L404.57,93,367.8,42.24c-1.36-1.88-4.71-1.41-4.66,1.26.35,16.93.18,33.88.18,50.81l2.5-2.5H357l2.5,2.5V30.56l-2.5,2.5h9.42l-2.16-1.24L400.34,81.9c1.37,1.9,4.69,1.4,4.66-1.26-.19-16.69-.09-33.38-.09-50.07l-2.5,2.5h8.78l-2.5-2.5V94.31c0,3.22,5,3.22,5,0V30.56a2.54,2.54,0,0,0-2.5-2.5h-8.78a2.54,2.54,0,0,0-2.5,2.5c0,16.69-.1,33.38.09,50.07l4.66-1.26-23.52-32.6c-3.88-5.38-7.75-10.79-11.65-16.16-2.88-4-8-2.55-12.53-2.55a2.54,2.54,0,0,0-2.5,2.5V94.31a2.54,2.54,0,0,0,2.5,2.5h8.87a2.54,2.54,0,0,0,2.5-2.5c0-16.94.17-33.88-.18-50.81l-4.66,1.26L387,77.3l12,16.55c.89,1.24,1.54,2.48,3.08,2.92,2.59.75,6.41,0,9.11,0C414.4,96.81,414.41,91.81,411.19,91.81Z"/></g><g id="_Group_6" data-name="&lt;Group&gt;"><path d="M481.11,86c-4.62,4.25-12.75,8.31-23.84,8.31H438.06V30.56h19.22c11.09,0,19.22,4.07,23.84,8.31S491,50.52,491,62.44,485.73,81.75,481.11,86Zm-6.84-41.85c-3.51-3.33-9.24-5.91-17-5.91H447V86.55h10.25c7.76,0,13.49-2.59,17-5.91a24,24,0,0,0,7.58-18.2A24.24,24.24,0,0,0,474.28,44.14Z"/><path d="M479.34,84.23c-11.15,9.81-27.5,7.58-41.28,7.58l2.5,2.5V30.56l-2.5,2.5c11.74,0,25.33-1.74,36,3.93,17.22,9.13,18.94,34.27,5.26,47.24-2.34,2.22,1.2,5.75,3.54,3.54,14.48-13.73,14.3-39.47-1.67-52.06-12.2-9.62-28.6-7.64-43.15-7.64a2.54,2.54,0,0,0-2.5,2.5V94.31a2.54,2.54,0,0,0,2.5,2.5c15.43,0,32.33,1.94,44.82-9C485.3,85.63,481.75,82.11,479.34,84.23Z"/><path d="M476,42.38c-8.25-7.32-18.74-6.65-29-6.65a2.54,2.54,0,0,0-2.5,2.5V86.55a2.54,2.54,0,0,0,2.5,2.5c11.19,0,23.06.63,31-8.77,9.24-10.91,8.09-28-2-37.91-2.3-2.26-5.84,1.28-3.54,3.54,8.83,8.68,9.44,24.39,0,33-6.94,6.3-16.81,5.18-25.49,5.18l2.5,2.5V38.23l-2.5,2.5c8.74,0,18.44-1.07,25.49,5.18C474.91,48,478.46,44.52,476,42.38Z"/></g><g id="_Group_7" data-name="&lt;Group&gt;"><path d="M543.46,95.42c-17.92,0-32.89-12.47-32.89-32.89s15-32.89,32.89-32.89,32.89,12.47,32.89,32.89S561.39,95.42,543.46,95.42Zm0-58c-13,0-23.74,9.33-23.74,24.95s10.81,24.94,23.74,24.94,23.74-9.42,23.74-24.94S556.49,37.4,543.46,37.4Z"/><path d="M543.46,92.92c-12.66-.22-24.47-7-28.65-19.43-4.11-12.19-1.12-27,9.3-35,9.72-7.53,24.22-8.38,34.94-2.47,11.69,6.45,16.66,20.17,14.25,33-2.77,14.7-15.25,23.7-29.83,23.95-3.21.05-3.22,5.05,0,5,14.73-.25,28.17-8.27,33.27-22.48S578,43.88,565.86,34.5c-11.34-8.77-28-9.73-40.51-2.84-13.53,7.46-19.21,23.15-16.66,38,3,17.19,17.79,28,34.77,28.3C546.68,98,546.68,93,543.46,92.92Z"/><path d="M543.46,34.9c-11.14.26-20.88,6.48-24.61,17.2C515.06,63,517.64,76.49,526.73,84c8.31,6.83,20.8,7.69,30.11,2.36,10.13-5.8,14.17-17.84,12.49-29-2-13.27-12.59-22.12-25.86-22.43-3.22-.07-3.22,4.93,0,5,12.71.29,21.22,9.88,21.24,22.45,0,12.29-8.59,22.45-21.24,22.44s-21.24-10.18-21.24-22.44c0-12.57,8.55-22.15,21.24-22.45C546.68,39.83,546.69,34.83,543.46,34.9Z"/></g><g id="_Group_8" data-name="&lt;Group&gt;"><path d="M676,30.56,657.65,94.4h-8.78L633.53,42.85,618.29,94.4h-8.78L591.13,30.56h9.42l13.77,50.26L629,30.56h9.15l14.69,50.26,13.77-50.26Z"/><path d="M673.62,29.9,655.23,93.74l2.41-1.84h-8.78l2.41,1.84L635.94,42.19a2.52,2.52,0,0,0-4.82,0L615.88,93.74l2.41-1.84h-8.78l2.41,1.84L593.54,29.9l-2.41,3.16h9.42l-2.41-1.84,13.77,50.26a2.52,2.52,0,0,0,4.82,0l14.69-50.26L629,33.06h9.15l-2.41-1.84,14.69,50.26a2.52,2.52,0,0,0,4.82,0L669,31.23l-2.41,1.84H676c3.22,0,3.22-5,0-5h-9.42a2.55,2.55,0,0,0-2.41,1.84L650.43,80.16h4.82L640.56,29.9a2.56,2.56,0,0,0-2.41-1.84H629a2.55,2.55,0,0,0-2.41,1.84L611.91,80.16h4.82L603,29.9a2.55,2.55,0,0,0-2.41-1.84h-9.42a2.52,2.52,0,0,0-2.41,3.16L607.1,95.07a2.55,2.55,0,0,0,2.41,1.84h8.78a2.56,2.56,0,0,0,2.41-1.84l15.24-51.55h-4.82l15.34,51.55a2.56,2.56,0,0,0,2.41,1.84h8.78a2.55,2.55,0,0,0,2.41-1.84l18.39-63.84C679.33,28.13,674.51,26.81,673.62,29.9Z"/></g><g id="_Group_9" data-name="&lt;Group&gt;"><path d="M726.74,90.43c-4,3.23-9.24,5-15.61,5-11.18,0-17.55-7.21-20.6-10.72l5.27-6C699,83,705,87.84,712,87.84s12.47-4,12.47-10.72-7.11-9.24-10.35-10.53-7.76-3-10.16-4.25a20.54,20.54,0,0,1-6.38-4.53,15.31,15.31,0,0,1-4.16-11.09,15.86,15.86,0,0,1,5.82-12.29c3.51-3,8.5-4.71,14.69-4.71A24.85,24.85,0,0,1,732.19,38l-4.71,6.1c-3.14-3.32-7.76-6.84-14-6.84s-11.09,3-11.09,8.87,4.34,8.13,8.22,9.7l11.73,4.9a24.83,24.83,0,0,1,7.21,5.17,16.41,16.41,0,0,1,3.88,10.72A17.75,17.75,0,0,1,726.74,90.43Z"/><path d="M725.48,88.27c-11.19,8.47-24.66,4.44-33.19-5.34v3.54l5.27-6H694c6.49,8.24,20,14.33,29,5.94,7.75-7.26,3-17.24-5.34-21-4.69-2.13-9.79-3.47-14.24-6.11-6.8-4-9.88-12.37-5.59-19.5,7-11.68,24.5-8.52,32.58-.06V36.19l-4.71,6.1h3.54c-6.11-6.21-16.32-10.61-24.5-5.34-6.61,4.26-6.23,13.94-.18,18.48,4.5,3.38,10.77,4.86,15.85,7.16,11,5,14.07,17.64,4.55,26.08-2.41,2.14,1.13,5.66,3.54,3.54,6.33-5.61,9.24-14.39,6.12-22.52-2.26-5.88-7.26-9.54-12.87-11.92-4.34-1.84-9.29-3.25-13.31-5.76-5.19-3.23-4.5-10.26,1.58-11.91s11.59,1.56,15.68,5.72a2.51,2.51,0,0,0,3.54,0l4.71-6.1a2.58,2.58,0,0,0,0-3.54A28.16,28.16,0,0,0,707,28c-10.92,2.52-18.41,12.8-15.43,24,2.93,11.07,14.49,13.58,23.6,17.67,2.56,1.15,5.64,2.74,6.53,5.63a7.57,7.57,0,0,1-3.59,8.51c-7.41,4.45-15.94-1.12-20.52-6.93a2.51,2.51,0,0,0-3.54,0l-5.27,6a2.57,2.57,0,0,0,0,3.54c9.89,11.33,26.39,15.86,39.25,6.12C730.54,90.67,728,86.33,725.48,88.27Z"/></g><g id="_Group_10" data-name="&lt;Group&gt;"><path d="M785.77,95.42c-17.92,0-32.89-12.47-32.89-32.89s15-32.89,32.89-32.89,32.89,12.47,32.89,32.89S803.69,95.42,785.77,95.42Zm0-58c-13,0-23.74,9.33-23.74,24.95s10.81,24.94,23.74,24.94,23.74-9.42,23.74-24.94S798.79,37.4,785.77,37.4Z"/><path d="M785.77,92.92c-12.66-.22-24.47-7-28.65-19.43-4.11-12.19-1.12-27,9.3-35,9.72-7.53,24.22-8.38,34.94-2.47C813,42.43,818,56.15,815.6,69c-2.77,14.7-15.25,23.7-29.83,23.95-3.21.05-3.22,5.05,0,5,14.73-.25,28.17-8.27,33.27-22.48s1.25-31.57-10.87-40.94c-11.34-8.77-28-9.73-40.51-2.84-13.53,7.46-19.21,23.15-16.66,38,3,17.19,17.79,28,34.77,28.3C789,98,789,93,785.77,92.92Z"/><path d="M785.77,34.9c-11.14.26-20.88,6.48-24.61,17.2C757.36,63,759.94,76.49,769,84c8.31,6.83,20.8,7.69,30.11,2.36,10.13-5.8,14.17-17.84,12.49-29-2-13.27-12.59-22.12-25.86-22.43-3.22-.07-3.22,4.93,0,5,12.71.29,21.22,9.88,21.24,22.45,0,12.29-8.59,22.45-21.24,22.44s-21.24-10.18-21.24-22.44c0-12.57,8.55-22.15,21.24-22.45C789,39.83,789,34.83,785.77,34.9Z"/></g><g id="_Group_11" data-name="&lt;Group&gt;"><path d="M877.22,38H850.8V59.3h24.85v7.48H850.8V94.31h-9V30.56h35.38Z"/><path d="M877.22,35.55H850.8a2.54,2.54,0,0,0-2.5,2.5V59.3a2.54,2.54,0,0,0,2.5,2.5h24.85l-2.5-2.5v7.48l2.5-2.5H850.8a2.54,2.54,0,0,0-2.5,2.5V94.31l2.5-2.5h-9l2.5,2.5V30.56l-2.5,2.5h35.38l-2.5-2.5V38c0,3.22,5,3.22,5,0V30.56a2.54,2.54,0,0,0-2.5-2.5H841.84a2.54,2.54,0,0,0-2.5,2.5V94.31a2.54,2.54,0,0,0,2.5,2.5h9a2.54,2.54,0,0,0,2.5-2.5V66.78l-2.5,2.5h24.85a2.54,2.54,0,0,0,2.5-2.5V59.3a2.54,2.54,0,0,0-2.5-2.5H850.8l2.5,2.5V38l-2.5,2.5h26.42C880.44,40.55,880.44,35.55,877.22,35.55Z"/></g><g id="_Group_12" data-name="&lt;Group&gt;"><path d="M938.74,38H920.82V94.31h-9V38h-18V30.56h44.9Z"/><path d="M938.74,35.55H920.82a2.54,2.54,0,0,0-2.5,2.5V94.31l2.5-2.5h-9l2.5,2.5V38a2.54,2.54,0,0,0-2.5-2.5h-18l2.5,2.5V30.56l-2.5,2.5h44.9l-2.5-2.5V38c0,3.22,5,3.22,5,0V30.56a2.54,2.54,0,0,0-2.5-2.5h-44.9a2.54,2.54,0,0,0-2.5,2.5V38a2.54,2.54,0,0,0,2.5,2.5h18l-2.5-2.5V94.31a2.54,2.54,0,0,0,2.5,2.5h9a2.54,2.54,0,0,0,2.5-2.5V38l-2.5,2.5h17.92C942,40.55,942,35.55,938.74,35.55Z"/></g></g></g></g></svg>