<?xml version="1.0" encoding="UTF-8" standalone="no"?>
<svg
   xmlns:dc="http://purl.org/dc/elements/1.1/"
   xmlns:cc="http://creativecommons.org/ns#"
   xmlns:rdf="http://www.w3.org/1999/02/22-rdf-syntax-ns#"
   xmlns:svg="http://www.w3.org/2000/svg"
   xmlns="http://www.w3.org/2000/svg"
   viewBox="0 0 4320 960"
   height="960"
   width="4320"
   xml:space="preserve"
   id="svg2"
   version="1.1"><metadata
     id="metadata8"><rdf:RDF><cc:Work
         rdf:about=""><dc:format>image/svg+xml</dc:format><dc:type
           rdf:resource="http://purl.org/dc/dcmitype/StillImage" /></cc:Work></rdf:RDF></metadata><defs
     id="defs6"><clipPath
       id="clipPath30"
       clipPathUnits="userSpaceOnUse"><path
         id="path28"
         d="M 0,720 H 3240 V 0 H 0 Z" /></clipPath><clipPath
       id="clipPath38"
       clipPathUnits="userSpaceOnUse"><path
         id="path36"
         d="m 307.345,676.114 h 635.01 V 43.8857 h -635.01 z" /></clipPath><clipPath
       id="clipPath66"
       clipPathUnits="userSpaceOnUse"><path
         id="path64"
         d="M 0,720 H 3240 V 0 H 0 Z" /></clipPath><clipPath
       id="clipPath110"
       clipPathUnits="userSpaceOnUse"><path
         id="path108"
         d="M 0,720 H 3240 V 0 H 0 Z" /></clipPath></defs><g
     transform="matrix(1.3333333,0,0,-1.3333333,0,960)"
     id="g10"><path
       id="path12"
       style="fill:#ffffff;fill-opacity:1;fill-rule:nonzero;stroke:none"
       d="m 307.345,43.886 h 635.01 v 632.229 h -635.01 z" /><path
       id="path14"
       style="fill:#000000;fill-opacity:1;fill-rule:nonzero;stroke:none"
       d="m 308.845,45.386 h 632.01 v 629.229 h -632.01 z m 635.01,-3 h -638.01 v 635.229 h 638.01 z" /><g
       transform="translate(942.355,676.1143)"
       id="g16"><path
         id="path18"
         style="fill:#ffffff;fill-opacity:1;fill-rule:nonzero;stroke:none"
         d="M 0,0 H -635.01 V -632.229 Z" /></g><g
       transform="translate(307.3452,43.8857)"
       id="g20"><path
         id="path22"
         style="fill:#e54b0d;fill-opacity:1;fill-rule:nonzero;stroke:none"
         d="M 0,0 H 635.01 V 632.229 Z" /></g><g
       id="g24"><g
         clip-path="url(#clipPath30)"
         id="g26"><g
           id="g32"><g
             id="g34" /><g
             id="g46"><g
               id="g44"
               clip-path="url(#clipPath38)"><g
                 id="g42"
                 transform="translate(307.3447,676.1143)"><path
                   id="path40"
                   style="fill:#c9c9c9;fill-opacity:1;fill-rule:nonzero;stroke:none"
                   d="M 0,0 H 635.01 V -632.229 Z" /></g></g></g></g><g
           transform="translate(434.6846,467.7314)"
           id="g48"><path
             id="path50"
             style="fill:#000000;fill-opacity:1;fill-rule:nonzero;stroke:none"
             d="m 0,0 c 0,-10.952 0,-17.645 1.825,-20.079 1.825,-1.825 10.952,-3.042 41.983,-3.042 21.904,0 45.025,2.434 62.67,15.82 16.428,12.777 30.422,34.072 30.422,75.447 0,48.067 -29.814,93.7 -97.351,93.7 C 1.825,161.846 0,159.413 0,142.376 Z m -49.893,87.008 c 0,57.802 -1.825,68.145 -26.771,71.188 l -19.47,2.433 c -4.26,3.043 -4.26,12.778 0.608,15.211 34.073,3.043 76.056,4.868 135.683,4.868 37.724,0 73.622,-3.042 101.611,-18.253 29.205,-15.211 50.501,-42.591 50.501,-85.183 0,-57.802 -45.634,-89.441 -76.056,-101.609 -3.043,-3.651 0,-9.736 3.042,-14.603 48.676,-78.49 80.923,-127.165 122.297,-161.846 10.344,-9.127 25.554,-15.82 41.983,-17.037 3.042,-1.217 3.651,-6.084 0.609,-8.518 -5.477,-1.825 -15.211,-3.043 -26.772,-3.043 -51.718,0 -82.748,15.212 -125.948,76.664 -15.82,22.513 -40.766,64.495 -59.628,91.876 -9.127,13.386 -18.861,19.47 -43.199,19.47 C 1.217,-41.374 0,-41.982 0,-54.76 v -76.664 c 0,-63.887 1.217,-71.187 36.506,-76.055 l 12.778,-1.826 c 3.651,-3.042 2.434,-13.385 -1.217,-15.211 -27.379,1.217 -48.067,1.826 -72.405,1.826 -25.555,0 -47.458,-0.609 -76.056,-1.826 -3.65,1.826 -4.867,10.953 -1.216,15.211 l 15.211,1.826 c 35.29,4.259 36.506,12.168 36.506,76.055 z" /></g><g
           transform="translate(636.4185,410.7842)"
           id="g52"><path
             id="path54"
             style="fill:#ffffff;fill-opacity:1;fill-rule:nonzero;stroke:none"
             d="m 0,0 c 40.797,31.855 92.771,47.504 150.895,47.504 30.178,0 72.652,-6.148 98.919,-13.413 6.707,-1.676 10.619,-2.794 15.648,-2.236 0.559,-12.853 3.353,-48.062 7.824,-82.153 -2.794,-3.912 -11.177,-4.471 -15.089,-1.118 -8.383,38.003 -33.532,81.595 -114.568,81.595 -85.507,0 -158.16,-54.21 -158.16,-169.896 0,-117.362 74.33,-182.191 165.984,-182.191 72.094,0 103.949,46.945 116.804,79.918 3.912,2.795 12.295,1.677 14.53,-2.236 -3.912,-29.06 -18.442,-65.946 -26.825,-76.564 -6.707,-1.118 -13.413,-3.354 -19.561,-5.589 -12.295,-4.471 -52.534,-12.854 -88.301,-12.854 -50.298,0 -98.361,10.06 -139.159,37.444 -44.709,30.738 -79.358,81.595 -79.358,153.689 0,62.035 27.943,115.127 70.417,148.1" /></g><g
           transform="translate(636.4185,410.7842)"
           id="g56"><path
             id="path58"
             style="fill:none;stroke:#000000;stroke-width:2;stroke-linecap:butt;stroke-linejoin:miter;stroke-miterlimit:4;stroke-dasharray:none;stroke-opacity:1"
             d="m 0,0 c 40.797,31.855 92.771,47.504 150.895,47.504 30.178,0 72.652,-6.148 98.919,-13.413 6.707,-1.676 10.619,-2.794 15.648,-2.236 0.559,-12.853 3.353,-48.062 7.824,-82.153 -2.794,-3.912 -11.177,-4.471 -15.089,-1.118 -8.383,38.003 -33.532,81.595 -114.568,81.595 -85.507,0 -158.16,-54.21 -158.16,-169.896 0,-117.362 74.33,-182.191 165.984,-182.191 72.094,0 103.949,46.945 116.804,79.918 3.912,2.795 12.295,1.677 14.53,-2.236 -3.912,-29.06 -18.442,-65.946 -26.825,-76.564 -6.707,-1.118 -13.413,-3.354 -19.561,-5.589 -12.295,-4.471 -52.534,-12.854 -88.301,-12.854 -50.298,0 -98.361,10.06 -139.159,37.444 -44.709,30.738 -79.358,81.595 -79.358,153.689 0,62.035 27.943,115.127 70.417,148.1 z" /></g></g></g><g
       id="g60"><g
         clip-path="url(#clipPath66)"
         id="g62"><g
           transform="translate(1183.1631,596.231)"
           id="g68"><path
             id="path70"
             style="fill:white;fill-opacity:1;fill-rule:nonzero;stroke:none"
             d="m 0,0 c 0,12.598 -3.614,22.582 -10.84,29.956 -7.228,7.372 -17.431,11.06 -30.615,11.06 h -24.902 v -89.209 h 19.189 c 13.477,0 24.706,4.321 33.691,12.964 C -4.493,-26.587 0,-14.845 0,0 M 77.051,-154.98 H 21.094 c -12.404,19.432 -23.61,36.229 -33.618,50.39 -10.012,14.159 -20.874,28.759 -32.593,43.799 h -21.24 v -65.918 c 0,-3.419 0.535,-6.422 1.611,-9.009 1.073,-2.589 3.369,-4.566 6.885,-5.932 1.757,-0.685 4.834,-1.319 9.228,-1.905 4.395,-0.586 8.105,-0.929 11.133,-1.025 v -10.4 h -87.891 v 10.4 c 2.344,0.194 5.736,0.536 10.181,1.025 4.442,0.488 7.544,1.122 9.302,1.905 2.929,1.268 5.054,3.124 6.372,5.566 1.318,2.44 1.977,5.566 1.977,9.375 V 23.584 c 0,3.417 -0.489,6.445 -1.464,9.082 -0.978,2.637 -3.273,4.637 -6.885,6.006 -2.443,0.879 -5.617,1.684 -9.522,2.417 -3.907,0.732 -7.228,1.195 -9.961,1.391 v 10.401 h 95.948 c 8.789,0 17.04,-0.904 24.755,-2.71 7.714,-1.808 14.697,-4.713 20.948,-8.716 6.053,-3.907 10.887,-9.009 14.502,-15.308 3.612,-6.298 5.42,-13.893 5.42,-22.778 0,-8.009 -1.223,-15.088 -3.662,-21.24 -2.443,-6.152 -6.057,-11.476 -10.84,-15.967 -4.395,-4.2 -9.668,-7.837 -15.821,-10.913 -6.152,-3.076 -12.941,-5.69 -20.361,-7.837 10.254,-13.575 18.773,-25.001 25.562,-34.277 6.786,-9.279 15.11,-20.558 24.975,-33.838 4.296,-5.86 8.178,-10.181 11.646,-12.964 3.465,-2.783 6.907,-5.054 10.327,-6.812 2.538,-1.27 5.713,-2.247 9.521,-2.929 3.809,-0.685 6.981,-1.076 9.522,-1.172 z" /></g><g
           transform="translate(1446.0264,502.481)"
           id="g72"><path
             id="path74"
             style="fill:white;fill-opacity:1;fill-rule:nonzero;stroke:none"
             d="m 0,0 -3.955,-61.23 h -172.559 v 10.4 c 2.93,0.194 6.835,0.609 11.719,1.245 4.882,0.634 8.057,1.293 9.522,1.978 3.124,1.464 5.296,3.369 6.518,5.712 1.22,2.344 1.831,5.322 1.831,8.936 v 149.414 c 0,3.223 -0.538,6.079 -1.611,8.569 -1.076,2.491 -3.321,4.516 -6.738,6.08 -2.637,1.268 -6.178,2.391 -10.621,3.369 -4.444,0.975 -7.983,1.561 -10.62,1.757 v 10.401 h 160.84 V 96.533 H -26.66 c -1.955,7.421 -6.178,15.308 -12.671,23.657 -6.496,8.35 -12.671,12.914 -18.53,13.697 -3.029,0.389 -6.642,0.682 -10.84,0.879 -4.2,0.194 -8.986,0.293 -14.356,0.293 h -32.666 V 52.441 h 23.438 c 7.518,0 13.012,0.707 16.479,2.124 3.466,1.415 6.519,3.784 9.156,7.105 2.147,2.831 3.978,6.615 5.493,11.352 1.512,4.736 2.513,9.204 3.003,13.404 h 10.986 V 5.127 h -10.986 c -0.392,4.687 -1.442,9.643 -3.15,14.868 -1.71,5.223 -3.492,9.009 -5.346,11.353 -3.029,3.808 -6.471,6.298 -10.328,7.47 -3.858,1.172 -8.96,1.758 -15.307,1.758 h -23.438 v -62.402 c 0,-6.251 0.44,-11.183 1.319,-14.795 0.879,-3.614 2.586,-6.349 5.127,-8.203 2.538,-1.857 6.006,-3.053 10.4,-3.589 4.395,-0.538 10.643,-0.806 18.75,-0.806 h 12.744 c 5.274,0 9.716,0.195 13.33,0.586 3.71,0.389 7.544,1.099 11.499,2.124 3.955,1.026 6.762,2.417 8.423,4.175 4.491,4.688 9.203,11.792 14.136,21.313 4.93,9.522 8.079,16.528 9.448,21.021 z" /></g><g
           transform="translate(1720.4619,441.2505)"
           id="g76"><path
             id="path78"
             style="fill:white;fill-opacity:1;fill-rule:nonzero;stroke:none"
             d="m 0,0 h -91.846 v 10.4 c 3.319,0.097 7.592,0.44 12.818,1.026 5.222,0.586 8.811,1.414 10.766,2.49 3.026,1.854 5.248,3.978 6.665,6.372 1.414,2.392 2.124,5.395 2.124,9.009 v 151.172 h -2.197 l -70.898,-177.1 h -7.325 l -67.529,180.762 h -1.904 V 60.059 c 0,-12.012 0.755,-21.144 2.27,-27.393 1.513,-6.251 3.831,-10.744 6.958,-13.477 2.147,-2.05 6.592,-4.005 13.33,-5.859 6.739,-1.856 11.133,-2.833 13.184,-2.93 V 0 h -83.936 v 10.4 c 4.395,0.39 9.009,1.122 13.843,2.198 4.834,1.073 8.57,2.684 11.206,4.834 3.417,2.733 5.761,6.932 7.032,12.597 1.267,5.663 1.904,15.136 1.904,28.418 v 106.348 c 0,6.152 -0.733,11.181 -2.197,15.088 -1.465,3.905 -3.567,7.079 -6.299,9.521 -3.029,2.637 -6.739,4.589 -11.133,5.86 -4.395,1.268 -8.741,2 -13.037,2.197 v 10.4 h 70.898 L -125.83,52.002 -75,182.373 c 1.854,4.784 3.442,9.789 4.761,15.015 1.318,5.223 2.025,8.716 2.124,10.473 h 67.822 v -10.4 c -2.735,-0.099 -6.226,-0.538 -10.474,-1.318 -4.248,-0.783 -7.349,-1.516 -9.301,-2.198 -3.322,-1.172 -5.567,-3.126 -6.739,-5.859 -1.172,-2.735 -1.757,-5.713 -1.757,-8.936 V 29.297 c 0,-3.42 0.585,-6.299 1.757,-8.643 1.172,-2.343 3.417,-4.394 6.739,-6.152 1.757,-0.978 4.881,-1.881 9.375,-2.71 C -6.203,10.961 -2.637,10.497 0,10.4 Z" /></g><g
           transform="translate(1842.2607,441.2505)"
           id="g80"><path
             id="path82"
             style="fill:white;fill-opacity:1;fill-rule:nonzero;stroke:none"
             d="m 0,0 h -93.604 v 10.4 c 2.637,0.195 6.446,0.488 11.426,0.879 4.981,0.389 8.496,0.975 10.547,1.758 3.223,1.268 5.567,3.003 7.031,5.2 1.465,2.198 2.198,5.248 2.198,9.156 v 150.586 c 0,3.417 -0.538,6.273 -1.612,8.569 -1.076,2.293 -3.614,4.223 -7.617,5.786 -2.93,1.172 -6.617,2.27 -11.059,3.296 -4.446,1.025 -8.082,1.634 -10.914,1.831 v 10.4 H 0 v -10.4 c -3.028,-0.099 -6.643,-0.465 -10.84,-1.099 -4.2,-0.636 -7.862,-1.442 -10.986,-2.417 -3.713,-1.172 -6.203,-3.076 -7.471,-5.713 -1.27,-2.636 -1.904,-5.566 -1.904,-8.789 V 29.004 c 0,-3.223 0.707,-6.079 2.124,-8.569 1.414,-2.491 3.831,-4.468 7.251,-5.933 2.051,-0.783 5.394,-1.637 10.034,-2.564 C -7.155,11.009 -3.223,10.497 0,10.4 Z" /></g><g
           transform="translate(2084.6162,638.7114)"
           id="g84"><path
             id="path86"
             style="fill:white;fill-opacity:1;fill-rule:nonzero;stroke:none"
             d="m 0,0 c -2.735,-0.099 -6.936,-0.879 -12.598,-2.344 -5.665,-1.465 -9.718,-2.98 -12.158,-4.541 -3.515,-2.442 -5.885,-7.13 -7.104,-14.062 -1.223,-6.935 -1.831,-15.724 -1.831,-26.367 V -199.512 H -46.436 L -172.412,-29.443 V -136.67 c 0,-12.012 0.755,-21.24 2.27,-27.685 1.513,-6.446 3.831,-11.037 6.958,-13.77 2.246,-2.149 6.885,-4.152 13.916,-6.006 7.032,-1.856 11.668,-2.833 13.916,-2.93 v -10.4 h -85.253 v 10.4 c 2.636,0.195 7.079,1.147 13.33,2.857 6.248,1.707 10.155,3.246 11.718,4.614 3.417,2.733 5.761,6.908 7.032,12.525 1.267,5.614 1.904,15.209 1.904,28.784 v 102.392 c 0,4.491 -0.783,8.984 -2.344,13.477 -1.563,4.491 -3.662,7.958 -6.299,10.4 -3.515,3.223 -8.276,5.981 -14.282,8.277 -6.006,2.293 -10.865,3.538 -14.575,3.735 v 10.4 h 59.326 L -47.9,-148.096 v 98.877 c 0,12.108 -0.784,21.41 -2.344,27.906 -1.564,6.493 -3.809,10.814 -6.738,12.963 -2.736,1.854 -7.204,3.662 -13.404,5.42 -6.203,1.758 -10.913,2.733 -14.135,2.93 V 10.4 L 0,10.4 Z" /></g><g
           transform="translate(2305.585,524.3071)"
           id="g88"><path
             id="path90"
             style="fill:white;fill-opacity:1;fill-rule:nonzero;stroke:none"
             d="m 0,0 c -2.344,-0.293 -5.493,-0.758 -9.448,-1.392 -3.955,-0.636 -7.156,-1.538 -9.595,-2.71 -2.93,-1.464 -5.006,-3.541 -6.226,-6.225 -1.222,-2.687 -1.831,-5.837 -1.831,-9.448 v -16.114 c 0,-11.718 0.074,-19.629 0.22,-23.73 0.147,-4.102 0.316,-7.471 0.513,-10.108 -12.989,-5.859 -25.928,-10.352 -38.819,-13.476 -12.89,-3.124 -25.539,-4.688 -37.939,-4.688 -13.282,0 -26.074,2.491 -38.379,7.471 -12.305,4.981 -23.049,12.06 -32.226,21.24 -9.28,9.277 -16.652,20.556 -22.12,33.838 -5.47,13.28 -8.203,28.125 -8.203,44.531 0,15.821 2.612,30.492 7.837,44.019 5.223,13.524 12.62,25.269 22.193,35.23 9.276,9.764 20.335,17.358 33.178,22.778 12.84,5.42 26.587,8.13 41.236,8.13 11.718,0 21.921,-1.417 30.615,-4.248 8.69,-2.834 16.355,-6.251 22.998,-10.254 l 6.006,9.961 h 11.719 l 1.318,-72.657 h -12.012 c -2.051,8.007 -4.592,15.894 -7.617,23.658 -3.028,7.763 -6.936,14.721 -11.719,20.874 -4.786,6.152 -10.62,11.059 -17.505,14.721 -6.884,3.662 -15.113,5.494 -24.682,5.494 -10.451,0 -19.776,-2.124 -27.979,-6.373 -8.203,-4.248 -15.333,-10.572 -21.387,-18.969 -5.958,-8.107 -10.546,-18.215 -13.769,-30.323 -3.223,-12.11 -4.834,-25.634 -4.834,-40.576 0,-13.183 1.586,-25.612 4.761,-37.28 3.172,-11.671 7.786,-21.753 13.842,-30.249 6.054,-8.693 13.624,-15.527 22.706,-20.508 9.082,-4.98 19.383,-7.471 30.908,-7.471 8.592,0 16.428,1.319 23.511,3.956 7.079,2.636 12.084,5.419 15.014,8.349 0.78,5.077 1.194,10.204 1.245,15.381 0.048,5.175 0.074,9.569 0.074,13.184 v 11.425 c 0,4.102 -0.564,7.739 -1.685,10.913 -1.124,3.173 -3.442,5.494 -6.958,6.958 -3.223,1.465 -7.595,2.564 -13.11,3.296 -5.519,0.733 -9.84,1.195 -12.964,1.392 v 10.693 l 91.113,0 z" /></g><g
           transform="translate(2493.8877,592.7153)"
           id="g92"><path
             id="path94"
             style="fill:white;fill-opacity:1;fill-rule:nonzero;stroke:none"
             d="m 0,0 h -10.107 c -0.879,3.516 -2.468,7.69 -4.761,12.524 -2.296,4.834 -4.86,9.398 -7.691,13.697 -2.929,4.49 -6.129,8.423 -9.594,11.792 -3.468,3.369 -6.812,5.296 -10.035,5.786 -3.028,0.389 -6.836,0.682 -11.425,0.879 -4.592,0.194 -8.84,0.293 -12.744,0.293 h -8.497 v -166.26 c 0,-3.223 0.682,-6.178 2.051,-8.862 1.366,-2.687 3.758,-4.761 7.178,-6.226 1.758,-0.685 5.442,-1.611 11.06,-2.783 5.614,-1.172 9.983,-1.808 13.11,-1.904 v -10.401 H -139.6 v 10.401 c 2.733,0.194 6.908,0.585 12.525,1.171 5.614,0.586 9.496,1.319 11.645,2.198 3.223,1.268 5.589,3.099 7.105,5.493 1.512,2.391 2.27,5.589 2.27,9.595 V 44.971 h -8.496 c -3.028,0 -6.789,-0.074 -11.279,-0.22 -4.493,-0.147 -8.789,-0.465 -12.891,-0.952 -3.222,-0.392 -6.569,-2.321 -10.034,-5.786 -3.468,-3.468 -6.665,-7.398 -9.595,-11.792 -2.929,-4.395 -5.518,-9.059 -7.763,-13.99 -2.248,-4.932 -3.809,-9.008 -4.688,-12.231 h -10.254 V 56.396 L 0,56.396 Z" /></g><g
           transform="translate(2659.6318,477.1392)"
           id="g96"><path
             id="path98"
             style="fill:white;fill-opacity:1;fill-rule:nonzero;stroke:none"
             d="m 0,0 c 5.468,8.885 9.448,18.944 11.938,30.176 2.491,11.229 3.736,23.778 3.736,37.646 0,14.257 -1.392,27.343 -4.175,39.258 -2.783,11.913 -6.862,22.069 -12.231,30.469 -5.372,8.299 -12.111,14.769 -20.215,19.409 -8.108,4.637 -17.384,6.958 -27.832,6.958 -11.719,0 -21.68,-2.687 -29.883,-8.057 -8.203,-5.372 -14.894,-12.549 -20.068,-21.533 -4.885,-8.595 -8.522,-18.654 -10.914,-30.176 -2.394,-11.524 -3.588,-23.634 -3.588,-36.328 0,-14.062 1.267,-26.759 3.808,-38.086 2.538,-11.329 6.541,-21.386 12.012,-30.175 5.273,-8.595 11.913,-15.308 19.922,-20.142 8.006,-4.834 17.578,-7.251 28.711,-7.251 10.448,0 19.871,2.44 28.271,7.324 C -12.11,-15.626 -5.273,-8.789 0,0 m 21.826,147.363 c 9.178,-9.571 16.356,-21.119 21.533,-34.643 5.175,-13.527 7.764,-28.491 7.764,-44.898 0,-16.505 -2.637,-31.494 -7.91,-44.97 C 37.939,9.375 30.615,-2.101 21.24,-11.572 12.158,-20.947 1.611,-28.175 -10.4,-33.252 c -12.012,-5.077 -24.807,-7.617 -38.379,-7.617 -14.454,0 -27.81,2.71 -40.064,8.13 -12.257,5.42 -22.778,12.964 -31.567,22.632 -8.789,9.471 -15.699,20.97 -20.728,34.497 -5.031,13.524 -7.544,28.001 -7.544,43.432 0,16.894 2.637,31.957 7.911,45.191 5.273,13.231 12.546,24.682 21.826,34.35 9.177,9.57 19.848,16.894 32.007,21.973 12.158,5.077 24.876,7.617 38.159,7.617 13.769,0 26.756,-2.589 38.965,-7.764 12.206,-5.177 22.752,-12.451 31.64,-21.826" /></g><g
           transform="translate(2953.1104,638.7114)"
           id="g100"><path
             id="path102"
             style="fill:white;fill-opacity:1;fill-rule:nonzero;stroke:none"
             d="m 0,0 c -2.735,-0.099 -6.936,-0.879 -12.598,-2.344 -5.665,-1.465 -9.718,-2.98 -12.158,-4.541 -3.515,-2.442 -5.885,-7.13 -7.104,-14.062 -1.223,-6.935 -1.831,-15.724 -1.831,-26.367 V -199.512 H -46.436 L -172.412,-29.443 V -136.67 c 0,-12.012 0.755,-21.24 2.27,-27.685 1.513,-6.446 3.831,-11.037 6.958,-13.77 2.246,-2.149 6.885,-4.152 13.916,-6.006 7.032,-1.856 11.668,-2.833 13.916,-2.93 v -10.4 h -85.253 v 10.4 c 2.636,0.195 7.079,1.147 13.33,2.857 6.248,1.707 10.155,3.246 11.718,4.614 3.417,2.733 5.761,6.908 7.032,12.525 1.267,5.614 1.904,15.209 1.904,28.784 v 102.392 c 0,4.491 -0.783,8.984 -2.344,13.477 -1.563,4.491 -3.662,7.958 -6.299,10.4 -3.515,3.223 -8.276,5.981 -14.282,8.277 -6.006,2.293 -10.865,3.538 -14.575,3.735 v 10.4 h 59.326 L -47.9,-148.096 v 98.877 c 0,12.108 -0.784,21.41 -2.344,27.906 -1.564,6.493 -3.809,10.814 -6.738,12.963 -2.736,1.854 -7.204,3.662 -13.404,5.42 -6.203,1.758 -10.913,2.733 -14.135,2.93 V 10.4 L 0,10.4 Z" /></g></g></g><g
       id="g104"><g
         clip-path="url(#clipPath110)"
         id="g106"><g
           transform="translate(1141.916,68.1406)"
           id="g112"><path
             id="path114"
             style="fill:white;fill-opacity:1;fill-rule:nonzero;stroke:none"
             d="m 0,0 c -11.535,0 -22.594,2.271 -33.173,6.813 -10.582,4.54 -19.959,11.079 -28.133,19.617 -8.085,8.536 -14.533,18.958 -19.346,31.266 -4.815,12.306 -7.22,26.179 -7.22,41.62 0,15.44 2.361,29.449 7.084,42.029 4.722,12.579 11.261,23.409 19.618,32.493 8.264,8.991 18.028,15.939 29.291,20.844 11.261,4.904 23.296,7.356 36.102,7.356 9.537,0 18.165,-1.182 25.885,-3.542 7.719,-2.363 15.076,-5.677 22.07,-9.945 l 5.586,9.263 H 68.663 L 69.889,128.88 H 58.718 c -1.454,6.72 -3.634,14.009 -6.54,21.865 -2.907,7.856 -6.313,14.51 -10.217,19.959 -4.36,6.175 -9.537,11.012 -15.531,14.509 -5.994,3.495 -12.853,5.245 -20.572,5.245 -8.811,0 -17.008,-1.954 -24.59,-5.858 -7.585,-3.906 -14.147,-9.672 -19.686,-17.302 -5.269,-7.357 -9.401,-16.712 -12.398,-28.065 -2.997,-11.354 -4.496,-24.024 -4.496,-38.009 0,-12.353 1.567,-23.684 4.7,-33.992 3.134,-10.308 7.606,-19.368 13.42,-27.178 5.811,-7.721 12.691,-13.76 20.639,-18.119 7.947,-4.36 16.825,-6.54 26.635,-6.54 7.356,0 14.121,1.158 20.299,3.474 6.175,2.316 11.533,5.381 16.076,9.195 4.54,3.997 8.536,8.537 11.988,13.624 3.451,5.086 6.267,10.626 8.447,16.622 L 77.109,53.405 C 69.297,34.24 58.943,20.549 46.048,12.33 33.15,4.11 17.8,0 0,0" /></g><g
           transform="translate(1141.916,68.1406)"
           id="g116"><path
             id="path118"
             style="fill:none;stroke:#000000;stroke-width:1;stroke-linecap:butt;stroke-linejoin:miter;stroke-miterlimit:4;stroke-dasharray:none;stroke-opacity:1"
             d="m 0,0 c -11.535,0 -22.594,2.271 -33.173,6.813 -10.582,4.54 -19.959,11.079 -28.133,19.617 -8.085,8.536 -14.533,18.958 -19.346,31.266 -4.815,12.306 -7.22,26.179 -7.22,41.62 0,15.44 2.361,29.449 7.084,42.029 4.722,12.579 11.261,23.409 19.618,32.493 8.264,8.991 18.028,15.939 29.291,20.844 11.261,4.904 23.296,7.356 36.102,7.356 9.537,0 18.165,-1.182 25.885,-3.542 7.719,-2.363 15.076,-5.677 22.07,-9.945 l 5.586,9.263 H 68.663 L 69.889,128.88 H 58.718 c -1.454,6.72 -3.634,14.009 -6.54,21.865 -2.907,7.856 -6.313,14.51 -10.217,19.959 -4.36,6.175 -9.537,11.012 -15.531,14.509 -5.994,3.495 -12.853,5.245 -20.572,5.245 -8.811,0 -17.008,-1.954 -24.59,-5.858 -7.585,-3.906 -14.147,-9.672 -19.686,-17.302 -5.269,-7.357 -9.401,-16.712 -12.398,-28.065 -2.997,-11.354 -4.496,-24.024 -4.496,-38.009 0,-12.353 1.567,-23.684 4.7,-33.992 3.134,-10.308 7.606,-19.368 13.42,-27.178 5.811,-7.721 12.691,-13.76 20.639,-18.119 7.947,-4.36 16.825,-6.54 26.635,-6.54 7.356,0 14.121,1.158 20.299,3.474 6.175,2.316 11.533,5.381 16.076,9.195 4.54,3.997 8.536,8.537 11.988,13.624 3.451,5.086 6.267,10.626 8.447,16.622 L 77.109,53.405 C 69.297,34.24 58.943,20.549 46.048,12.33 33.15,4.11 17.8,0 0,0 Z" /></g><g
           transform="translate(1343.8447,106.0146)"
           id="g120"><path
             id="path122"
             style="fill:white;fill-opacity:1;fill-rule:nonzero;stroke:none"
             d="m 0,0 c 5.085,8.264 8.788,17.619 11.104,28.064 2.315,10.444 3.474,22.116 3.474,35.013 0,13.26 -1.295,25.43 -3.883,36.512 -2.589,11.079 -6.382,20.524 -11.376,28.337 -4.996,7.719 -11.263,13.736 -18.8,18.051 -7.54,4.312 -16.168,6.471 -25.885,6.471 -10.899,0 -20.163,-2.499 -27.793,-7.493 -7.629,-4.996 -13.851,-11.672 -18.664,-20.026 -4.543,-7.994 -7.925,-17.35 -10.15,-28.066 -2.226,-10.717 -3.337,-21.98 -3.337,-33.786 0,-13.079 1.179,-24.887 3.542,-35.421 2.361,-10.537 6.084,-19.89 11.171,-28.065 4.905,-7.993 11.08,-14.237 18.528,-18.733 7.446,-4.495 16.349,-6.743 26.703,-6.743 9.717,0 18.481,2.269 26.293,6.812 C -11.263,-14.532 -4.904,-8.174 0,0 m 20.299,137.054 c 8.536,-8.903 15.212,-19.642 20.027,-32.221 4.813,-12.58 7.22,-26.497 7.22,-41.756 0,-15.349 -2.452,-29.291 -7.356,-41.824 C 35.285,8.719 28.474,-1.954 19.754,-10.763 11.308,-19.481 1.499,-26.204 -9.672,-30.926 c -11.172,-4.721 -23.071,-7.084 -35.694,-7.084 -13.443,0 -25.864,2.521 -37.261,7.561 -11.399,5.041 -21.185,12.057 -29.359,21.049 -8.174,8.808 -14.6,19.503 -19.277,32.084 -4.679,12.578 -7.016,26.042 -7.016,40.393 0,15.712 2.452,29.721 7.357,42.028 4.904,12.307 11.669,22.957 20.298,31.949 8.537,8.899 18.46,15.711 29.768,20.434 11.308,4.722 23.137,7.085 35.49,7.085 12.806,0 24.884,-2.408 36.239,-7.22 11.352,-4.816 21.161,-11.581 29.426,-20.299" /></g><g
           transform="translate(1343.8447,106.0146)"
           id="g124"><path
             id="path126"
             style="fill:none;stroke:#000000;stroke-width:1;stroke-linecap:butt;stroke-linejoin:miter;stroke-miterlimit:4;stroke-dasharray:none;stroke-opacity:1"
             d="m 0,0 c 5.085,8.264 8.788,17.619 11.104,28.064 2.315,10.444 3.474,22.116 3.474,35.013 0,13.26 -1.295,25.43 -3.883,36.512 -2.589,11.079 -6.382,20.524 -11.376,28.337 -4.996,7.719 -11.263,13.736 -18.8,18.051 -7.54,4.312 -16.168,6.471 -25.885,6.471 -10.899,0 -20.163,-2.499 -27.793,-7.493 -7.629,-4.996 -13.851,-11.672 -18.664,-20.026 -4.543,-7.994 -7.925,-17.35 -10.15,-28.066 -2.226,-10.717 -3.337,-21.98 -3.337,-33.786 0,-13.079 1.179,-24.887 3.542,-35.421 2.361,-10.537 6.084,-19.89 11.171,-28.065 4.905,-7.993 11.08,-14.237 18.528,-18.733 7.446,-4.495 16.349,-6.743 26.703,-6.743 9.717,0 18.481,2.269 26.293,6.812 C -11.263,-14.532 -4.904,-8.174 0,0 Z m 20.299,137.054 c 8.536,-8.903 15.212,-19.642 20.027,-32.221 4.813,-12.58 7.22,-26.497 7.22,-41.756 0,-15.349 -2.452,-29.291 -7.356,-41.824 C 35.285,8.719 28.474,-1.954 19.754,-10.763 11.308,-19.481 1.499,-26.204 -9.672,-30.926 c -11.172,-4.721 -23.071,-7.084 -35.694,-7.084 -13.443,0 -25.864,2.521 -37.261,7.561 -11.399,5.041 -21.185,12.057 -29.359,21.049 -8.174,8.808 -14.6,19.503 -19.277,32.084 -4.679,12.578 -7.016,26.042 -7.016,40.393 0,15.712 2.452,29.721 7.357,42.028 4.904,12.307 11.669,22.957 20.298,31.949 8.537,8.899 18.46,15.711 29.768,20.434 11.308,4.722 23.137,7.085 35.49,7.085 12.806,0 24.884,-2.408 36.239,-7.22 11.352,-4.816 21.161,-11.581 29.426,-20.299 z" /></g><g
           transform="translate(1586.0996,256.2832)"
           id="g128"><path
             id="path130"
             style="fill:white;fill-opacity:1;fill-rule:nonzero;stroke:none"
             d="m 0,0 c -2.543,-0.092 -6.45,-0.817 -11.716,-2.18 -5.268,-1.363 -9.038,-2.772 -11.307,-4.223 -3.27,-2.272 -5.474,-6.631 -6.608,-13.079 -1.137,-6.45 -1.703,-14.624 -1.703,-24.523 v -141.549 h -11.853 l -117.163,158.17 v -99.724 c 0,-11.172 0.703,-19.754 2.112,-25.749 1.407,-5.995 3.564,-10.265 6.471,-12.806 2.089,-1.999 6.403,-3.861 12.943,-5.586 6.539,-1.727 10.852,-2.636 12.942,-2.725 v -9.672 h -79.289 v 9.672 c 2.452,0.181 6.584,1.067 12.398,2.657 5.811,1.588 9.444,3.018 10.898,4.292 3.178,2.541 5.358,6.423 6.54,11.647 1.179,5.222 1.771,14.146 1.771,26.771 v 95.229 c 0,4.176 -0.728,8.355 -2.18,12.533 -1.454,4.177 -3.406,7.402 -5.859,9.673 -3.269,2.997 -7.697,5.563 -13.282,7.697 -5.586,2.133 -10.105,3.291 -13.556,3.475 v 9.672 h 55.176 l 108.716,-147.407 v 91.96 c 0,11.26 -0.728,19.911 -2.18,25.953 -1.454,6.039 -3.542,10.057 -6.267,12.056 -2.544,1.724 -6.698,3.406 -12.465,5.04 C -71.23,-1.09 -75.611,-0.184 -78.608,0 V 9.672 L 0,9.672 Z" /></g><g
           transform="translate(1586.0996,256.2832)"
           id="g132"><path
             id="path134"
             style="fill:none;stroke:#000000;stroke-width:1;stroke-linecap:butt;stroke-linejoin:miter;stroke-miterlimit:4;stroke-dasharray:none;stroke-opacity:1"
             d="m 0,0 c -2.543,-0.092 -6.45,-0.817 -11.716,-2.18 -5.268,-1.363 -9.038,-2.772 -11.307,-4.223 -3.27,-2.272 -5.474,-6.631 -6.608,-13.079 -1.137,-6.45 -1.703,-14.624 -1.703,-24.523 v -141.549 h -11.853 l -117.163,158.17 v -99.724 c 0,-11.172 0.703,-19.754 2.112,-25.749 1.407,-5.995 3.564,-10.265 6.471,-12.806 2.089,-1.999 6.403,-3.861 12.943,-5.586 6.539,-1.727 10.852,-2.636 12.942,-2.725 v -9.672 h -79.289 v 9.672 c 2.452,0.181 6.584,1.067 12.398,2.657 5.811,1.588 9.444,3.018 10.898,4.292 3.178,2.541 5.358,6.423 6.54,11.647 1.179,5.222 1.771,14.146 1.771,26.771 v 95.229 c 0,4.176 -0.728,8.355 -2.18,12.533 -1.454,4.177 -3.406,7.402 -5.859,9.673 -3.269,2.997 -7.697,5.563 -13.282,7.697 -5.586,2.133 -10.105,3.291 -13.556,3.475 v 9.672 h 55.176 l 108.716,-147.407 v 91.96 c 0,11.26 -0.728,19.911 -2.18,25.953 -1.454,6.039 -3.542,10.057 -6.267,12.056 -2.544,1.724 -6.698,3.406 -12.465,5.04 C -71.23,-1.09 -75.611,-0.184 -78.608,0 V 9.672 L 0,9.672 Z" /></g><g
           transform="translate(1694.1621,161.3262)"
           id="g136"><path
             id="path138"
             style="fill:white;fill-opacity:1;fill-rule:nonzero;stroke:none"
             d="m 0,0 c 4.087,-4.542 7.105,-9.515 9.06,-14.918 1.952,-5.404 2.929,-11.694 2.929,-18.868 0,-17.076 -6.314,-31.153 -18.937,-42.234 -12.625,-11.082 -28.292,-16.621 -47.001,-16.621 -8.63,0 -17.258,1.342 -25.885,4.02 -8.63,2.678 -16.076,5.926 -22.343,9.74 l -5.858,-9.945 h -10.899 l -1.907,66.211 h 11.035 c 2.269,-8.174 4.926,-15.554 7.97,-22.138 3.042,-6.587 7.061,-12.738 12.057,-18.46 4.721,-5.36 10.238,-9.629 16.552,-12.807 6.312,-3.18 13.645,-4.768 22.002,-4.768 6.267,0 11.738,0.817 16.416,2.452 4.677,1.635 8.468,3.951 11.376,6.948 2.906,2.997 5.063,6.517 6.472,10.559 1.406,4.04 2.111,8.695 2.111,13.964 0,7.719 -2.179,14.918 -6.539,21.594 -4.36,6.675 -10.854,11.737 -19.482,15.19 -5.904,2.36 -12.67,4.973 -20.299,7.833 -7.629,2.861 -14.215,5.562 -19.754,8.106 -10.899,4.905 -19.369,11.33 -25.408,19.278 -6.042,7.946 -9.06,18.323 -9.06,31.13 0,7.356 1.499,14.213 4.496,20.571 2.997,6.356 7.265,12.034 12.806,17.03 5.266,4.721 11.488,8.423 18.664,11.103 7.174,2.677 14.667,4.019 22.48,4.019 8.899,0 16.869,-1.362 23.909,-4.087 7.037,-2.725 13.464,-5.905 19.277,-9.537 l 5.586,9.264 H 2.725 L 3.814,40.462 H -7.221 c -1.999,7.357 -4.246,14.394 -6.743,21.117 -2.499,6.72 -5.746,12.806 -9.741,18.255 -3.906,5.267 -8.675,9.469 -14.305,12.603 -5.633,3.132 -12.534,4.7 -20.708,4.7 -8.63,0 -15.986,-2.772 -22.07,-8.311 -6.086,-5.541 -9.128,-12.308 -9.128,-20.299 0,-8.357 1.952,-15.282 5.858,-20.776 3.905,-5.496 9.581,-10.014 17.03,-13.556 6.629,-3.18 13.147,-5.925 19.549,-8.242 6.404,-2.316 12.603,-4.792 18.597,-7.425 5.449,-2.363 10.694,-5.041 15.736,-8.038 C -8.106,7.493 -3.726,3.996 0,0" /></g><g
           transform="translate(1694.1621,161.3262)"
           id="g140"><path
             id="path142"
             style="fill:none;stroke:#000000;stroke-width:1;stroke-linecap:butt;stroke-linejoin:miter;stroke-miterlimit:4;stroke-dasharray:none;stroke-opacity:1"
             d="m 0,0 c 4.087,-4.542 7.105,-9.515 9.06,-14.918 1.952,-5.404 2.929,-11.694 2.929,-18.868 0,-17.076 -6.314,-31.153 -18.937,-42.234 -12.625,-11.082 -28.292,-16.621 -47.001,-16.621 -8.63,0 -17.258,1.342 -25.885,4.02 -8.63,2.678 -16.076,5.926 -22.343,9.74 l -5.858,-9.945 h -10.899 l -1.907,66.211 h 11.035 c 2.269,-8.174 4.926,-15.554 7.97,-22.138 3.042,-6.587 7.061,-12.738 12.057,-18.46 4.721,-5.36 10.238,-9.629 16.552,-12.807 6.312,-3.18 13.645,-4.768 22.002,-4.768 6.267,0 11.738,0.817 16.416,2.452 4.677,1.635 8.468,3.951 11.376,6.948 2.906,2.997 5.063,6.517 6.472,10.559 1.406,4.04 2.111,8.695 2.111,13.964 0,7.719 -2.179,14.918 -6.539,21.594 -4.36,6.675 -10.854,11.737 -19.482,15.19 -5.904,2.36 -12.67,4.973 -20.299,7.833 -7.629,2.861 -14.215,5.562 -19.754,8.106 -10.899,4.905 -19.369,11.33 -25.408,19.278 -6.042,7.946 -9.06,18.323 -9.06,31.13 0,7.356 1.499,14.213 4.496,20.571 2.997,6.356 7.265,12.034 12.806,17.03 5.266,4.721 11.488,8.423 18.664,11.103 7.174,2.677 14.667,4.019 22.48,4.019 8.899,0 16.869,-1.362 23.909,-4.087 7.037,-2.725 13.464,-5.905 19.277,-9.537 l 5.586,9.264 H 2.725 L 3.814,40.462 H -7.221 c -1.999,7.357 -4.246,14.394 -6.743,21.117 -2.499,6.72 -5.746,12.806 -9.741,18.255 -3.906,5.267 -8.675,9.469 -14.305,12.603 -5.633,3.132 -12.534,4.7 -20.708,4.7 -8.63,0 -15.986,-2.772 -22.07,-8.311 -6.086,-5.541 -9.128,-12.308 -9.128,-20.299 0,-8.357 1.952,-15.282 5.858,-20.776 3.905,-5.496 9.581,-10.014 17.03,-13.556 6.629,-3.18 13.147,-5.925 19.549,-8.242 6.404,-2.316 12.603,-4.792 18.597,-7.425 5.449,-2.363 10.694,-5.041 15.736,-8.038 C -8.106,7.493 -3.726,3.996 0,0 Z" /></g><g
           transform="translate(1859.5801,213.5049)"
           id="g144"><path
             id="path146"
             style="fill:white;fill-opacity:1;fill-rule:nonzero;stroke:none"
             d="m 0,0 h -9.4 c -0.818,3.27 -2.295,7.152 -4.428,11.648 -2.136,4.496 -4.52,8.741 -7.152,12.738 -2.725,4.177 -5.702,7.834 -8.924,10.968 -3.225,3.132 -6.335,4.925 -9.332,5.38 -2.817,0.363 -6.359,0.635 -10.627,0.818 -4.27,0.18 -8.221,0.272 -11.853,0.272 h -7.901 v -154.628 c 0,-2.997 0.635,-5.745 1.907,-8.242 1.272,-2.499 3.495,-4.428 6.676,-5.79 1.635,-0.637 5.062,-1.498 10.286,-2.589 5.222,-1.09 9.285,-1.681 12.192,-1.77 v -9.673 h -91.277 v 9.673 c 2.541,0.18 6.424,0.545 11.647,1.09 5.222,0.544 8.832,1.225 10.832,2.043 2.997,1.179 5.198,2.882 6.607,5.109 1.407,2.224 2.111,5.198 2.111,8.924 V 41.824 h -7.901 c -2.817,0 -6.314,-0.068 -10.49,-0.204 -4.179,-0.137 -8.174,-0.432 -11.989,-0.886 -2.997,-0.364 -6.109,-2.158 -9.332,-5.38 -3.225,-3.226 -6.199,-6.88 -8.923,-10.968 -2.725,-4.087 -5.132,-8.425 -7.221,-13.01 -2.09,-4.588 -3.542,-8.379 -4.36,-11.376 h -9.536 V 52.45 L 0,52.45 Z" /></g><g
           transform="translate(1859.5801,213.5049)"
           id="g148"><path
             id="path150"
             style="fill:none;stroke:#000000;stroke-width:1;stroke-linecap:butt;stroke-linejoin:miter;stroke-miterlimit:4;stroke-dasharray:none;stroke-opacity:1"
             d="m 0,0 h -9.4 c -0.818,3.27 -2.295,7.152 -4.428,11.648 -2.136,4.496 -4.52,8.741 -7.152,12.738 -2.725,4.177 -5.702,7.834 -8.924,10.968 -3.225,3.132 -6.335,4.925 -9.332,5.38 -2.817,0.363 -6.359,0.635 -10.627,0.818 -4.27,0.18 -8.221,0.272 -11.853,0.272 h -7.901 v -154.628 c 0,-2.997 0.635,-5.745 1.907,-8.242 1.272,-2.499 3.495,-4.428 6.676,-5.79 1.635,-0.637 5.062,-1.498 10.286,-2.589 5.222,-1.09 9.285,-1.681 12.192,-1.77 v -9.673 h -91.277 v 9.673 c 2.541,0.18 6.424,0.545 11.647,1.09 5.222,0.544 8.832,1.225 10.832,2.043 2.997,1.179 5.198,2.882 6.607,5.109 1.407,2.224 2.111,5.198 2.111,8.924 V 41.824 h -7.901 c -2.817,0 -6.314,-0.068 -10.49,-0.204 -4.179,-0.137 -8.174,-0.432 -11.989,-0.886 -2.997,-0.364 -6.109,-2.158 -9.332,-5.38 -3.225,-3.226 -6.199,-6.88 -8.923,-10.968 -2.725,-4.087 -5.132,-8.425 -7.221,-13.01 -2.09,-4.588 -3.542,-8.379 -4.36,-11.376 h -9.536 V 52.45 L 0,52.45 Z" /></g><g
           transform="translate(1963.8271,216.7744)"
           id="g152"><path
             id="path154"
             style="fill:white;fill-opacity:1;fill-rule:nonzero;stroke:none"
             d="m 0,0 c 0,11.716 -3.36,21.002 -10.081,27.86 -6.723,6.857 -16.212,10.286 -28.474,10.286 h -23.16 v -82.967 h 17.848 c 12.533,0 22.976,4.018 31.334,12.056 C -4.179,-24.727 0,-13.807 0,0 M 71.66,-144.138 H 19.618 c -11.535,18.073 -21.957,33.696 -31.265,46.866 -9.312,13.168 -19.415,26.747 -30.313,40.734 h -19.755 v -61.306 c 0,-3.18 0.498,-5.973 1.499,-8.379 0.998,-2.407 3.134,-4.247 6.403,-5.517 1.635,-0.637 4.496,-1.227 8.584,-1.772 4.086,-0.545 7.537,-0.864 10.353,-0.953 v -9.673 h -81.741 v 9.673 c 2.179,0.181 5.334,0.498 9.468,0.953 4.131,0.454 7.016,1.044 8.651,1.772 2.725,1.179 4.7,2.905 5.926,5.177 1.226,2.269 1.84,5.176 1.84,8.719 V 21.934 c 0,3.178 -0.456,5.995 -1.363,8.447 -0.909,2.452 -3.045,4.312 -6.403,5.585 -2.272,0.817 -5.224,1.567 -8.856,2.248 -3.633,0.682 -6.722,1.111 -9.263,1.295 v 9.672 h 89.234 c 8.174,0 15.848,-0.841 23.024,-2.52 7.173,-1.682 13.669,-4.384 19.481,-8.106 5.631,-3.634 10.127,-8.379 13.488,-14.237 3.359,-5.858 5.04,-12.922 5.04,-21.184 0,-7.448 -1.136,-14.033 -3.405,-19.755 -2.271,-5.722 -5.633,-10.673 -10.082,-14.85 -4.087,-3.906 -8.991,-7.288 -14.713,-10.149 -5.722,-2.861 -12.036,-5.292 -18.937,-7.289 9.537,-12.625 17.46,-23.251 23.773,-31.879 6.312,-8.63 14.054,-19.12 23.229,-31.471 3.995,-5.449 7.605,-9.468 10.83,-12.056 3.223,-2.589 6.425,-4.701 9.605,-6.335 2.361,-1.182 5.313,-2.09 8.855,-2.725 3.543,-0.637 6.493,-1.001 8.855,-1.09 z" /></g><g
           transform="translate(1963.8271,216.7744)"
           id="g156"><path
             id="path158"
             style="fill:none;stroke:#000000;stroke-width:1;stroke-linecap:butt;stroke-linejoin:miter;stroke-miterlimit:4;stroke-dasharray:none;stroke-opacity:1"
             d="m 0,0 c 0,11.716 -3.36,21.002 -10.081,27.86 -6.723,6.857 -16.212,10.286 -28.474,10.286 h -23.16 v -82.967 h 17.848 c 12.533,0 22.976,4.018 31.334,12.056 C -4.179,-24.727 0,-13.807 0,0 Z M 71.66,-144.138 H 19.618 c -11.535,18.073 -21.957,33.696 -31.265,46.866 -9.312,13.168 -19.415,26.747 -30.313,40.734 h -19.755 v -61.306 c 0,-3.18 0.498,-5.973 1.499,-8.379 0.998,-2.407 3.134,-4.247 6.403,-5.517 1.635,-0.637 4.496,-1.227 8.584,-1.772 4.086,-0.545 7.537,-0.864 10.353,-0.953 v -9.673 h -81.741 v 9.673 c 2.179,0.181 5.334,0.498 9.468,0.953 4.131,0.454 7.016,1.044 8.651,1.772 2.725,1.179 4.7,2.905 5.926,5.177 1.226,2.269 1.84,5.176 1.84,8.719 V 21.934 c 0,3.178 -0.456,5.995 -1.363,8.447 -0.909,2.452 -3.045,4.312 -6.403,5.585 -2.272,0.817 -5.224,1.567 -8.856,2.248 -3.633,0.682 -6.722,1.111 -9.263,1.295 v 9.672 h 89.234 c 8.174,0 15.848,-0.841 23.024,-2.52 7.173,-1.682 13.669,-4.384 19.481,-8.106 5.631,-3.634 10.127,-8.379 13.488,-14.237 3.359,-5.858 5.04,-12.922 5.04,-21.184 0,-7.448 -1.136,-14.033 -3.405,-19.755 -2.271,-5.722 -5.633,-10.673 -10.082,-14.85 -4.087,-3.906 -8.991,-7.288 -14.713,-10.149 -5.722,-2.861 -12.036,-5.292 -18.937,-7.289 9.537,-12.625 17.46,-23.251 23.773,-31.879 6.312,-8.63 14.054,-19.12 23.229,-31.471 3.995,-5.449 7.605,-9.468 10.83,-12.056 3.223,-2.589 6.425,-4.701 9.605,-6.335 2.361,-1.182 5.313,-2.09 8.855,-2.725 3.543,-0.637 6.493,-1.001 8.855,-1.09 z" /></g><g
           transform="translate(2210.5781,256.2832)"
           id="g160"><path
             id="path162"
             style="fill:white;fill-opacity:1;fill-rule:nonzero;stroke:none"
             d="m 0,0 c -2.544,-0.092 -6.267,-0.637 -11.171,-1.635 -4.905,-1.001 -8.902,-2.5 -11.989,-4.496 -3.089,-2.091 -5.224,-6.403 -6.403,-12.942 -1.181,-6.539 -1.771,-14.533 -1.771,-23.978 v -84.057 c 0,-10.718 -2.227,-20.027 -6.676,-27.929 -4.451,-7.901 -10.309,-14.397 -17.574,-19.482 -7.176,-4.904 -14.737,-8.425 -22.684,-10.558 -7.948,-2.133 -15.553,-3.201 -22.819,-3.201 -11.627,0 -21.98,1.521 -31.061,4.563 -9.083,3.042 -16.713,7.152 -22.888,12.33 -6.086,5.177 -10.674,11.103 -13.76,17.779 -3.089,6.675 -4.633,13.644 -4.633,20.912 v 114.301 c 0,3.179 -0.523,5.835 -1.566,7.97 -1.045,2.134 -3.156,4.109 -6.335,5.927 -2.272,1.27 -5.177,2.293 -8.719,3.065 -3.542,0.771 -6.45,1.247 -8.72,1.431 v 9.672 h 80.516 V 0 c -2.544,-0.092 -5.745,-0.501 -9.604,-1.227 -3.862,-0.727 -6.7,-1.409 -8.515,-2.044 -3.089,-1.089 -5.155,-2.907 -6.199,-5.449 -1.045,-2.544 -1.567,-5.312 -1.567,-8.31 v -106.809 c 0,-5.177 0.567,-10.605 1.703,-16.28 1.135,-5.677 3.383,-10.967 6.745,-15.871 3.542,-4.996 8.354,-9.083 14.44,-12.262 6.084,-3.18 14.441,-4.769 25.067,-4.769 9.991,0 18.369,1.589 25.136,4.769 6.765,3.179 12.102,7.356 16.008,12.534 3.723,4.905 6.356,10.034 7.901,15.395 1.544,5.357 2.317,10.762 2.317,16.212 v 79.289 c 0,10.082 -0.729,18.324 -2.18,24.727 -1.454,6.403 -3.589,10.603 -6.403,12.602 -3.181,2.268 -7.517,4.04 -13.011,5.313 -5.496,1.271 -9.696,1.996 -12.602,2.18 V 9.672 L 0,9.672 Z" /></g><g
           transform="translate(2210.5781,256.2832)"
           id="g164"><path
             id="path166"
             style="fill:none;stroke:#000000;stroke-width:1;stroke-linecap:butt;stroke-linejoin:miter;stroke-miterlimit:4;stroke-dasharray:none;stroke-opacity:1"
             d="m 0,0 c -2.544,-0.092 -6.267,-0.637 -11.171,-1.635 -4.905,-1.001 -8.902,-2.5 -11.989,-4.496 -3.089,-2.091 -5.224,-6.403 -6.403,-12.942 -1.181,-6.539 -1.771,-14.533 -1.771,-23.978 v -84.057 c 0,-10.718 -2.227,-20.027 -6.676,-27.929 -4.451,-7.901 -10.309,-14.397 -17.574,-19.482 -7.176,-4.904 -14.737,-8.425 -22.684,-10.558 -7.948,-2.133 -15.553,-3.201 -22.819,-3.201 -11.627,0 -21.98,1.521 -31.061,4.563 -9.083,3.042 -16.713,7.152 -22.888,12.33 -6.086,5.177 -10.674,11.103 -13.76,17.779 -3.089,6.675 -4.633,13.644 -4.633,20.912 v 114.301 c 0,3.179 -0.523,5.835 -1.566,7.97 -1.045,2.134 -3.156,4.109 -6.335,5.927 -2.272,1.27 -5.177,2.293 -8.719,3.065 -3.542,0.771 -6.45,1.247 -8.72,1.431 v 9.672 h 80.516 V 0 c -2.544,-0.092 -5.745,-0.501 -9.604,-1.227 -3.862,-0.727 -6.7,-1.409 -8.515,-2.044 -3.089,-1.089 -5.155,-2.907 -6.199,-5.449 -1.045,-2.544 -1.567,-5.312 -1.567,-8.31 v -106.809 c 0,-5.177 0.567,-10.605 1.703,-16.28 1.135,-5.677 3.383,-10.967 6.745,-15.871 3.542,-4.996 8.354,-9.083 14.44,-12.262 6.084,-3.18 14.441,-4.769 25.067,-4.769 9.991,0 18.369,1.589 25.136,4.769 6.765,3.179 12.102,7.356 16.008,12.534 3.723,4.905 6.356,10.034 7.901,15.395 1.544,5.357 2.317,10.762 2.317,16.212 v 79.289 c 0,10.082 -0.729,18.324 -2.18,24.727 -1.454,6.403 -3.589,10.603 -6.403,12.602 -3.181,2.268 -7.517,4.04 -13.011,5.313 -5.496,1.271 -9.696,1.996 -12.602,2.18 V 9.672 L 0,9.672 Z" /></g><g
           transform="translate(2283.3564,68.1406)"
           id="g168"><path
             id="path170"
             style="fill:white;fill-opacity:1;fill-rule:nonzero;stroke:none"
             d="m 0,0 c -11.536,0 -22.595,2.271 -33.174,6.813 -10.582,4.54 -19.959,11.079 -28.133,19.617 -8.085,8.536 -14.532,18.958 -19.345,31.266 -4.815,12.306 -7.221,26.179 -7.221,41.62 0,15.44 2.361,29.449 7.085,42.029 4.721,12.579 11.261,23.409 19.618,32.493 8.263,8.991 18.027,15.939 29.29,20.844 11.261,4.904 23.297,7.356 36.103,7.356 9.537,0 18.164,-1.182 25.884,-3.542 7.719,-2.363 15.076,-5.677 22.071,-9.945 l 5.586,9.263 H 68.662 L 69.889,128.88 H 58.718 c -1.454,6.72 -3.634,14.009 -6.54,21.865 -2.907,7.856 -6.314,14.51 -10.218,19.959 -4.359,6.175 -9.536,11.012 -15.53,14.509 -5.995,3.495 -12.854,5.245 -20.573,5.245 -8.81,0 -17.007,-1.954 -24.589,-5.858 -7.585,-3.906 -14.148,-9.672 -19.687,-17.302 -5.269,-7.357 -9.4,-16.712 -12.397,-28.065 -2.997,-11.354 -4.497,-24.024 -4.497,-38.009 0,-12.353 1.568,-23.684 4.701,-33.992 3.133,-10.308 7.606,-19.368 13.42,-27.178 5.81,-7.721 12.69,-13.76 20.639,-18.119 7.947,-4.36 16.825,-6.54 26.634,-6.54 7.357,0 14.122,1.158 20.299,3.474 6.176,2.316 11.533,5.381 16.076,9.195 4.54,3.997 8.536,8.537 11.988,13.624 3.452,5.086 6.268,10.626 8.448,16.622 L 77.109,53.405 C 69.297,34.24 58.943,20.549 46.047,12.33 33.149,4.11 17.8,0 0,0" /></g><g
           transform="translate(2283.3564,68.1406)"
           id="g172"><path
             id="path174"
             style="fill:none;stroke:#000000;stroke-width:1;stroke-linecap:butt;stroke-linejoin:miter;stroke-miterlimit:4;stroke-dasharray:none;stroke-opacity:1"
             d="m 0,0 c -11.536,0 -22.595,2.271 -33.174,6.813 -10.582,4.54 -19.959,11.079 -28.133,19.617 -8.085,8.536 -14.532,18.958 -19.345,31.266 -4.815,12.306 -7.221,26.179 -7.221,41.62 0,15.44 2.361,29.449 7.085,42.029 4.721,12.579 11.261,23.409 19.618,32.493 8.263,8.991 18.027,15.939 29.29,20.844 11.261,4.904 23.297,7.356 36.103,7.356 9.537,0 18.164,-1.182 25.884,-3.542 7.719,-2.363 15.076,-5.677 22.071,-9.945 l 5.586,9.263 H 68.662 L 69.889,128.88 H 58.718 c -1.454,6.72 -3.634,14.009 -6.54,21.865 -2.907,7.856 -6.314,14.51 -10.218,19.959 -4.359,6.175 -9.536,11.012 -15.53,14.509 -5.995,3.495 -12.854,5.245 -20.573,5.245 -8.81,0 -17.007,-1.954 -24.589,-5.858 -7.585,-3.906 -14.148,-9.672 -19.687,-17.302 -5.269,-7.357 -9.4,-16.712 -12.397,-28.065 -2.997,-11.354 -4.497,-24.024 -4.497,-38.009 0,-12.353 1.568,-23.684 4.701,-33.992 3.133,-10.308 7.606,-19.368 13.42,-27.178 5.81,-7.721 12.69,-13.76 20.639,-18.119 7.947,-4.36 16.825,-6.54 26.634,-6.54 7.357,0 14.122,1.158 20.299,3.474 6.176,2.316 11.533,5.381 16.076,9.195 4.54,3.997 8.536,8.537 11.988,13.624 3.452,5.086 6.268,10.626 8.448,16.622 L 77.109,53.405 C 69.297,34.24 58.943,20.549 46.047,12.33 33.149,4.11 17.8,0 0,0 Z" /></g><g
           transform="translate(2506.5381,213.5049)"
           id="g176"><path
             id="path178"
             style="fill:white;fill-opacity:1;fill-rule:nonzero;stroke:none"
             d="m 0,0 h -9.4 c -0.818,3.27 -2.295,7.152 -4.428,11.648 -2.136,4.496 -4.52,8.741 -7.152,12.738 -2.725,4.177 -5.702,7.834 -8.924,10.968 -3.225,3.132 -6.335,4.925 -9.332,5.38 -2.817,0.363 -6.359,0.635 -10.627,0.818 -4.27,0.18 -8.221,0.272 -11.853,0.272 h -7.901 v -154.628 c 0,-2.997 0.635,-5.745 1.907,-8.242 1.272,-2.499 3.495,-4.428 6.676,-5.79 1.635,-0.637 5.062,-1.498 10.286,-2.589 5.222,-1.09 9.285,-1.681 12.192,-1.77 v -9.673 h -91.277 v 9.673 c 2.541,0.18 6.424,0.545 11.647,1.09 5.222,0.544 8.832,1.225 10.832,2.043 2.997,1.179 5.198,2.882 6.607,5.109 1.407,2.224 2.111,5.198 2.111,8.924 V 41.824 h -7.901 c -2.817,0 -6.314,-0.068 -10.49,-0.204 -4.179,-0.137 -8.174,-0.432 -11.989,-0.886 -2.997,-0.364 -6.109,-2.158 -9.332,-5.38 -3.225,-3.226 -6.199,-6.88 -8.923,-10.968 -2.725,-4.087 -5.132,-8.425 -7.221,-13.01 -2.09,-4.588 -3.542,-8.379 -4.36,-11.376 h -9.536 V 52.45 L 0,52.45 Z" /></g><g
           transform="translate(2506.5381,213.5049)"
           id="g180"><path
             id="path182"
             style="fill:none;stroke:#000000;stroke-width:1;stroke-linecap:butt;stroke-linejoin:miter;stroke-miterlimit:4;stroke-dasharray:none;stroke-opacity:1"
             d="m 0,0 h -9.4 c -0.818,3.27 -2.295,7.152 -4.428,11.648 -2.136,4.496 -4.52,8.741 -7.152,12.738 -2.725,4.177 -5.702,7.834 -8.924,10.968 -3.225,3.132 -6.335,4.925 -9.332,5.38 -2.817,0.363 -6.359,0.635 -10.627,0.818 -4.27,0.18 -8.221,0.272 -11.853,0.272 h -7.901 v -154.628 c 0,-2.997 0.635,-5.745 1.907,-8.242 1.272,-2.499 3.495,-4.428 6.676,-5.79 1.635,-0.637 5.062,-1.498 10.286,-2.589 5.222,-1.09 9.285,-1.681 12.192,-1.77 v -9.673 h -91.277 v 9.673 c 2.541,0.18 6.424,0.545 11.647,1.09 5.222,0.544 8.832,1.225 10.832,2.043 2.997,1.179 5.198,2.882 6.607,5.109 1.407,2.224 2.111,5.198 2.111,8.924 V 41.824 h -7.901 c -2.817,0 -6.314,-0.068 -10.49,-0.204 -4.179,-0.137 -8.174,-0.432 -11.989,-0.886 -2.997,-0.364 -6.109,-2.158 -9.332,-5.38 -3.225,-3.226 -6.199,-6.88 -8.923,-10.968 -2.725,-4.087 -5.132,-8.425 -7.221,-13.01 -2.09,-4.588 -3.542,-8.379 -4.36,-11.376 h -9.536 V 52.45 L 0,52.45 Z" /></g><g
           transform="translate(2578.6338,72.6367)"
           id="g184"><path
             id="path186"
             style="fill:white;fill-opacity:1;fill-rule:nonzero;stroke:none"
             d="m 0,0 h -87.055 v 9.673 c 2.452,0.181 5.994,0.453 10.626,0.817 4.633,0.362 7.903,0.907 9.81,1.635 2.997,1.18 5.177,2.793 6.539,4.836 1.362,2.044 2.044,4.882 2.044,8.516 v 140.049 c 0,3.179 -0.501,5.835 -1.499,7.97 -1,2.134 -3.361,3.928 -7.084,5.382 -2.725,1.09 -6.154,2.111 -10.286,3.065 -4.134,0.953 -7.517,1.52 -10.15,1.703 v 9.672 H 0 v -9.672 c -2.816,-0.091 -6.178,-0.432 -10.081,-1.022 -3.906,-0.592 -7.313,-1.341 -10.218,-2.248 -3.453,-1.09 -5.768,-2.86 -6.948,-5.313 -1.182,-2.452 -1.772,-5.176 -1.772,-8.174 V 26.975 c 0,-2.997 0.659,-5.654 1.976,-7.97 1.315,-2.317 3.564,-4.155 6.744,-5.518 1.907,-0.727 5.017,-1.521 9.332,-2.383 C -6.654,10.239 -2.997,9.762 0,9.673 Z" /></g><g
           transform="translate(2578.6338,72.6367)"
           id="g188"><path
             id="path190"
             style="fill:none;stroke:#000000;stroke-width:1;stroke-linecap:butt;stroke-linejoin:miter;stroke-miterlimit:4;stroke-dasharray:none;stroke-opacity:1"
             d="m 0,0 h -87.055 v 9.673 c 2.452,0.181 5.994,0.453 10.626,0.817 4.633,0.362 7.903,0.907 9.81,1.635 2.997,1.18 5.177,2.793 6.539,4.836 1.362,2.044 2.044,4.882 2.044,8.516 v 140.049 c 0,3.179 -0.501,5.835 -1.499,7.97 -1,2.134 -3.361,3.928 -7.084,5.382 -2.725,1.09 -6.154,2.111 -10.286,3.065 -4.134,0.953 -7.517,1.52 -10.15,1.703 v 9.672 H 0 v -9.672 c -2.816,-0.091 -6.178,-0.432 -10.081,-1.022 -3.906,-0.592 -7.313,-1.341 -10.218,-2.248 -3.453,-1.09 -5.768,-2.86 -6.948,-5.313 -1.182,-2.452 -1.772,-5.176 -1.772,-8.174 V 26.975 c 0,-2.997 0.659,-5.654 1.976,-7.97 1.315,-2.317 3.564,-4.155 6.744,-5.518 1.907,-0.727 5.017,-1.521 9.332,-2.383 C -6.654,10.239 -2.997,9.762 0,9.673 Z" /></g><g
           transform="translate(2710.8096,106.0146)"
           id="g192"><path
             id="path194"
             style="fill:white;fill-opacity:1;fill-rule:nonzero;stroke:none"
             d="m 0,0 c 5.085,8.264 8.787,17.619 11.103,28.064 2.316,10.444 3.474,22.116 3.474,35.013 0,13.26 -1.295,25.43 -3.883,36.512 -2.589,11.079 -6.381,20.524 -11.376,28.337 -4.996,7.719 -11.262,13.736 -18.8,18.051 -7.539,4.312 -16.167,6.471 -25.885,6.471 -10.899,0 -20.163,-2.499 -27.792,-7.493 -7.629,-4.996 -13.852,-11.672 -18.664,-20.026 -4.543,-7.994 -7.925,-17.35 -10.15,-28.066 -2.226,-10.717 -3.338,-21.98 -3.338,-33.786 0,-13.079 1.179,-24.887 3.542,-35.421 2.361,-10.537 6.084,-19.89 11.171,-28.065 4.906,-7.993 11.08,-14.237 18.529,-18.733 7.446,-4.495 16.348,-6.743 26.702,-6.743 9.718,0 18.481,2.269 26.294,6.812 C -11.264,-14.532 -4.905,-8.174 0,0 m 20.299,137.054 c 8.536,-8.903 15.212,-19.642 20.026,-32.221 4.814,-12.58 7.221,-26.497 7.221,-41.756 0,-15.349 -2.452,-29.291 -7.357,-41.824 C 35.285,8.719 28.473,-1.954 19.754,-10.763 11.308,-19.481 1.498,-26.204 -9.673,-30.926 c -11.172,-4.721 -23.071,-7.084 -35.694,-7.084 -13.443,0 -25.863,2.521 -37.261,7.561 -11.398,5.041 -21.185,12.057 -29.358,21.049 -8.174,8.808 -14.601,19.503 -19.278,32.084 -4.678,12.578 -7.016,26.042 -7.016,40.393 0,15.712 2.453,29.721 7.357,42.028 4.904,12.307 11.669,22.957 20.299,31.949 8.536,8.899 18.46,15.711 29.768,20.434 11.307,4.722 23.136,7.085 35.489,7.085 12.806,0 24.885,-2.408 36.239,-7.22 11.353,-4.816 21.161,-11.581 29.427,-20.299" /></g><g
           transform="translate(2710.8096,106.0146)"
           id="g196"><path
             id="path198"
             style="fill:none;stroke:#000000;stroke-width:1;stroke-linecap:butt;stroke-linejoin:miter;stroke-miterlimit:4;stroke-dasharray:none;stroke-opacity:1"
             d="m 0,0 c 5.085,8.264 8.787,17.619 11.103,28.064 2.316,10.444 3.474,22.116 3.474,35.013 0,13.26 -1.295,25.43 -3.883,36.512 -2.589,11.079 -6.381,20.524 -11.376,28.337 -4.996,7.719 -11.262,13.736 -18.8,18.051 -7.539,4.312 -16.167,6.471 -25.885,6.471 -10.899,0 -20.163,-2.499 -27.792,-7.493 -7.629,-4.996 -13.852,-11.672 -18.664,-20.026 -4.543,-7.994 -7.925,-17.35 -10.15,-28.066 -2.226,-10.717 -3.338,-21.98 -3.338,-33.786 0,-13.079 1.179,-24.887 3.542,-35.421 2.361,-10.537 6.084,-19.89 11.171,-28.065 4.906,-7.993 11.08,-14.237 18.529,-18.733 7.446,-4.495 16.348,-6.743 26.702,-6.743 9.718,0 18.481,2.269 26.294,6.812 C -11.264,-14.532 -4.905,-8.174 0,0 Z m 20.299,137.054 c 8.536,-8.903 15.212,-19.642 20.026,-32.221 4.814,-12.58 7.221,-26.497 7.221,-41.756 0,-15.349 -2.452,-29.291 -7.357,-41.824 C 35.285,8.719 28.473,-1.954 19.754,-10.763 11.308,-19.481 1.498,-26.204 -9.673,-30.926 c -11.172,-4.721 -23.071,-7.084 -35.694,-7.084 -13.443,0 -25.863,2.521 -37.261,7.561 -11.398,5.041 -21.185,12.057 -29.358,21.049 -8.174,8.808 -14.601,19.503 -19.278,32.084 -4.678,12.578 -7.016,26.042 -7.016,40.393 0,15.712 2.453,29.721 7.357,42.028 4.904,12.307 11.669,22.957 20.299,31.949 8.536,8.899 18.46,15.711 29.768,20.434 11.307,4.722 23.136,7.085 35.489,7.085 12.806,0 24.885,-2.408 36.239,-7.22 11.353,-4.816 21.161,-11.581 29.427,-20.299 z" /></g><g
           transform="translate(2953.0645,256.2832)"
           id="g200"><path
             id="path202"
             style="fill:white;fill-opacity:1;fill-rule:nonzero;stroke:none"
             d="m 0,0 c -2.544,-0.092 -6.45,-0.817 -11.717,-2.18 -5.268,-1.363 -9.038,-2.772 -11.307,-4.223 -3.27,-2.272 -5.473,-6.631 -6.608,-13.079 -1.137,-6.45 -1.703,-14.624 -1.703,-24.523 v -141.549 h -11.853 l -117.162,158.17 v -99.724 c 0,-11.172 0.703,-19.754 2.112,-25.749 1.407,-5.995 3.563,-10.265 6.47,-12.806 2.089,-1.999 6.404,-3.861 12.944,-5.586 6.539,-1.727 10.851,-2.636 12.942,-2.725 v -9.672 h -79.29 v 9.672 c 2.452,0.181 6.584,1.067 12.398,2.657 5.811,1.588 9.445,3.018 10.899,4.292 3.178,2.541 5.357,6.423 6.539,11.647 1.18,5.222 1.772,14.146 1.772,26.771 v 95.229 c 0,4.176 -0.729,8.355 -2.181,12.533 -1.453,4.177 -3.405,7.402 -5.858,9.673 -3.269,2.997 -7.697,5.563 -13.283,7.697 -5.586,2.133 -10.104,3.291 -13.555,3.475 v 9.672 h 55.175 L -44.55,-137.735 v 91.96 c 0,11.26 -0.727,19.911 -2.179,25.953 -1.454,6.039 -3.542,10.057 -6.267,12.056 -2.544,1.724 -6.699,3.406 -12.466,5.04 C -71.23,-1.09 -75.611,-0.184 -78.608,0 V 9.672 H 0 Z" /></g><g
           transform="translate(2953.0645,256.2832)"
           id="g204"><path
             id="path206"
             style="fill:none;stroke:#000000;stroke-width:1;stroke-linecap:butt;stroke-linejoin:miter;stroke-miterlimit:4;stroke-dasharray:none;stroke-opacity:1"
             d="m 0,0 c -2.544,-0.092 -6.45,-0.817 -11.717,-2.18 -5.268,-1.363 -9.038,-2.772 -11.307,-4.223 -3.27,-2.272 -5.473,-6.631 -6.608,-13.079 -1.137,-6.45 -1.703,-14.624 -1.703,-24.523 v -141.549 h -11.853 l -117.162,158.17 v -99.724 c 0,-11.172 0.703,-19.754 2.112,-25.749 1.407,-5.995 3.563,-10.265 6.47,-12.806 2.089,-1.999 6.404,-3.861 12.944,-5.586 6.539,-1.727 10.851,-2.636 12.942,-2.725 v -9.672 h -79.29 v 9.672 c 2.452,0.181 6.584,1.067 12.398,2.657 5.811,1.588 9.445,3.018 10.899,4.292 3.178,2.541 5.357,6.423 6.539,11.647 1.18,5.222 1.772,14.146 1.772,26.771 v 95.229 c 0,4.176 -0.729,8.355 -2.181,12.533 -1.453,4.177 -3.405,7.402 -5.858,9.673 -3.269,2.997 -7.697,5.563 -13.283,7.697 -5.586,2.133 -10.104,3.291 -13.555,3.475 v 9.672 h 55.175 L -44.55,-137.735 v 91.96 c 0,11.26 -0.727,19.911 -2.179,25.953 -1.454,6.039 -3.542,10.057 -6.267,12.056 -2.544,1.724 -6.699,3.406 -12.466,5.04 C -71.23,-1.09 -75.611,-0.184 -78.608,0 V 9.672 H 0 Z" /></g></g></g><path
       id="path208"
       style="fill:white;fill-opacity:1;fill-rule:nonzero;stroke:none"
       d="M 2847.584,356 H 1143.417 v 7 h 1704.167 z" /></g></svg>